<?xml version="1.0" standalone="no"?>
<!DOCTYPE svg PUBLIC "-//W3C//DTD SVG 1.1//EN" "http://www.w3.org/Graphics/SVG/1.1/DTD/svg11.dtd" >
<!--
2013-9-30: Created.
-->
<svg>
<metadata>
Created by iconfont
</metadata>
<defs>

<font id="iconfont" horiz-adv-x="1024" >
  <font-face
    font-family="iconfont"
    font-weight="500"
    font-stretch="normal"
    units-per-em="1024"
    ascent="896"
    descent="-128"
  />
    <missing-glyph />
    
    <glyph glyph-name="arrow-bold" unicode="&#58881;" d="M330.116473-41.104825a30.455907 30.455907 0 0 0-21.297837 8.519134 32.585691 32.585691 0 0 0-1.490849 45.151415l343.53411 377.610649L307.540765 756.712146a32.585691 32.585691 0 0 0 0 45.151415 30.455907 30.455907 0 0 0 43.873544 0L716.246256 412.539101a32.585691 32.585691 0 0 0 0-43.873544L352.69218-30.881864a30.668885 30.668885 0 0 0-22.575707-10.222961z"  horiz-adv-x="1027" />

    
    <glyph glyph-name="close-bold" unicode="&#58882;" d="M558.506667 384L907.733333 733.226667a32.853333 32.853333 0 0 1-46.506666 46.506666L512 430.506667 162.773333 779.733333a32.853333 32.853333 0 0 1-46.506666-46.506666L465.493333 384 116.266667 34.773333a32.853333 32.853333 0 0 1 46.506666-46.506666L512 337.493333l349.226667-349.226666a32.853333 32.853333 0 0 1 46.506666 46.506666z"  horiz-adv-x="1024" />

    
    <glyph glyph-name="arrow-down-lit" unicode="&#58883;" d="M85.333333 586.453333a11.093333 11.093333 0 0 0 2.773334 7.466667 10.453333 10.453333 0 0 0 15.146666 0l414.506667-397.226667 402.773333 397.653334a10.453333 10.453333 0 0 0 15.146667 0 11.093333 11.093333 0 0 0 0-15.573334l-410.24-405.333333a10.453333 10.453333 0 0 0-14.72 0l-421.76 405.333333a11.093333 11.093333 0 0 0-3.626667 7.68z"  horiz-adv-x="1024" />

    
    <glyph glyph-name="arrow-down-fill" unicode="&#58884;" d="M493.653333 177.92L93.866667 551.253333A26.666667 26.666667 0 0 0 112.213333 597.333333h799.573334a26.666667 26.666667 0 0 0 18.346666-46.08l-399.786666-373.333333a26.666667 26.666667 0 0 0-36.693334 0z"  horiz-adv-x="1024" />

    
    <glyph glyph-name="arrow-down-reg" unicode="&#58885;" d="M85.333333 576a21.333333 21.333333 0 0 0 35.84 15.573333l396.373334-370.133333 385.066666 369.92a21.333333 21.333333 0 1 0 29.653334-30.72l-398.933334-384a21.333333 21.333333 0 0 0-29.44 0l-411.093333 384A21.333333 21.333333 0 0 0 85.333333 576z"  horiz-adv-x="1024" />

    
    <glyph glyph-name="arrow-down-bold" unicode="&#58886;" d="M85.333333 566.186667a30.506667 30.506667 0 0 0 8.533334 21.333333 32.64 32.64 0 0 0 45.226666 1.493333l378.026667-344.32 367.36 343.893334a32.64 32.64 0 0 0 45.226667 0 30.506667 30.506667 0 0 0 0-43.946667L539.733333 179.413333a32.64 32.64 0 0 0-43.946666 0L95.573333 543.36A30.72 30.72 0 0 0 85.333333 566.186667z"  horiz-adv-x="1024" />

    
    <glyph glyph-name="arrow-fill" unicode="&#58887;" d="M719.866889 366.535774L347.154742-32.585691a26.622296 26.622296 0 0 0-46.003328 18.31614V783.973378a26.622296 26.622296 0 0 0 46.003328 18.316139l372.712147-399.121464a26.622296 26.622296 0 0 0 0-36.632279z"  horiz-adv-x="1027" />

    
    <glyph glyph-name="arrow-left-bold" unicode="&#58888;" d="M694.186667 810.666667a30.506667 30.506667 0 0 0 21.333333-8.533334 32.64 32.64 0 0 0 1.493333-45.226666L372.693333 378.88l343.893334-367.36a32.64 32.64 0 0 0 0-45.226667 30.506667 30.506667 0 0 0-43.946667 0L307.413333 356.266667a32.64 32.64 0 0 0 0 43.946666L671.36 800.426667A30.72 30.72 0 0 0 694.186667 810.666667z"  horiz-adv-x="1024" />

    
    <glyph glyph-name="arrow-left-reg" unicode="&#58889;" d="M704 810.666667a21.333333 21.333333 0 0 0 15.573333-35.84L349.44 378.453333l369.92-385.066666a21.333333 21.333333 0 1 0-30.72-29.653334l-384 398.933334a21.333333 21.333333 0 0 0 0 29.44l384 411.093333A21.333333 21.333333 0 0 0 704 810.666667z"  horiz-adv-x="1024" />

    
    <glyph glyph-name="arrow-lit" unicode="&#58890;" d="M306.262895-41.104825a11.074875 11.074875 0 0 0-7.454243 2.768719 10.43594 10.43594 0 0 0 0 15.121464l396.352746 413.816971L298.169717 792.918469a10.43594 10.43594 0 0 0 0 15.121464 11.074875 11.074875 0 0 0 15.547421 0l404.658902-409.557404a10.43594 10.43594 0 0 0 0-14.695507l-404.658902-421.058237a11.074875 11.074875 0 0 0-7.454243-3.83361z"  horiz-adv-x="1027" />

    
    <glyph glyph-name="arrow-reg" unicode="&#58891;" d="M320.745424-41.104825a21.297837 21.297837 0 0 0-15.547421 35.780366l369.517471 395.71381L305.410982 774.815308a21.297837 21.297837 0 1 0 30.668885 29.603993l383.361065-398.269551a21.297837 21.297837 0 0 0 0-29.391015l-383.361065-410.409317a21.297837 21.297837 0 0 0-15.334443-7.454243z"  horiz-adv-x="1027" />

    
    <glyph glyph-name="arrow-left-lit" unicode="&#58892;" d="M714.453333 810.666667a11.093333 11.093333 0 0 0 7.466667-2.773334 10.453333 10.453333 0 0 0 0-15.146666L324.693333 378.24l397.653334-402.773333a10.453333 10.453333 0 0 0 0-15.146667 11.093333 11.093333 0 0 0-15.573334 0l-405.333333 410.24a10.453333 10.453333 0 0 0 0 14.72l405.333333 421.76a11.093333 11.093333 0 0 0 7.68 3.626667z"  horiz-adv-x="1024" />

    
    <glyph glyph-name="arrow-left-fill" unicode="&#58893;" d="M305.92 402.133333L679.253333 802.133333a26.666667 26.666667 0 0 0 46.08-18.346666v-799.786667a26.666667 26.666667 0 0 0-46.08-18.346667l-373.333333 400a26.666667 26.666667 0 0 0 0 36.48z"  horiz-adv-x="1024" />

    
    <glyph glyph-name="arrow-up-bold" unicode="&#58894;" d="M938.666667 201.813333a30.506667 30.506667 0 0 0-8.533334-21.333333 32.64 32.64 0 0 0-45.226666-1.493333L506.88 523.306667 139.52 179.413333a32.64 32.64 0 0 0-45.226667 0 30.506667 30.506667 0 0 0 0 43.946667L484.266667 588.586667a32.64 32.64 0 0 0 43.946666 0l400.213334-363.946667a30.72 30.72 0 0 0 10.24-22.826667z"  horiz-adv-x="1024" />

    
    <glyph glyph-name="arrow-up-lit" unicode="&#58895;" d="M938.666667 181.546667a11.093333 11.093333 0 0 0-2.773334-7.466667 10.453333 10.453333 0 0 0-15.146666 0L506.24 571.306667 103.466667 173.653333a10.453333 10.453333 0 0 0-15.146667 0 11.093333 11.093333 0 0 0 0 15.573334l410.24 405.333333a10.453333 10.453333 0 0 0 14.72 0l421.76-405.333333a11.093333 11.093333 0 0 0 3.626667-7.68z"  horiz-adv-x="1024" />

    
    <glyph glyph-name="arrow-up-fill" unicode="&#58896;" d="M530.346667 590.08l399.786666-373.333333a26.666667 26.666667 0 0 0-18.346666-46.08H112.213333a26.666667 26.666667 0 0 0-18.346666 46.08l399.786666 373.333333a26.666667 26.666667 0 0 0 36.693334 0z"  horiz-adv-x="1024" />

    
    <glyph glyph-name="asterisk-bold" unicode="&#58897;" d="M777.6 267.52L576 384l201.6 116.48a32 32 0 0 1-32 55.466667L544 439.466667V672.213333a32 32 0 0 1-64 0V439.466667L277.333333 555.946667a32 32 0 0 1-32-55.466667L448 384l-201.6-116.48a32 32 0 0 1 32-55.466667l201.6 116.48v-232.746666a32 32 0 0 1 64 0V328.533333l202.666667-116.48a32 32 0 0 1 32 55.466667z"  horiz-adv-x="1024" />

    
    <glyph glyph-name="asterisk-lit" unicode="&#58898;" d="M794.453333 534.826667l-10.666666 18.346666-261.12-150.613333V704h-21.333334v-301.44l-261.12 150.613333-10.666666-18.346666L490.666667 384l-261.12-150.826667 10.666666-18.346666 261.12 150.613333V64h21.333334V365.44l261.12-150.613333 10.666666 18.346666L533.333333 384l261.12 150.826667z"  horiz-adv-x="1024" />

    
    <glyph glyph-name="asterisk-reg" unicode="&#58899;" d="M772.266667 258.346667L554.666667 384l217.6 125.653333c15.146667 8.746667 22.613333 24.106667 16.853333 34.346667s-23.04 11.306667-38.186667 2.56L533.333333 420.906667V672.213333C533.333333 689.706667 523.733333 704 512 704s-21.333333-14.293333-21.333333-31.786667v-251.306666l-217.6 125.653333c-15.146667 8.106667-32.213333 8.106667-38.4-2.56s1.706667-25.6 16.853333-34.346667L469.333333 384l-217.6-125.653333c-15.146667-8.746667-22.613333-24.106667-16.853333-34.346667s23.04-11.306667 38.186667-2.56L490.666667 347.093333v-251.306666c0-17.493333 9.6-31.786667 21.333333-31.786667s21.333333 14.293333 21.333333 31.786667V347.093333l217.6-125.653333c15.146667-8.746667 32.213333-7.68 38.186667 2.56s-1.706667 25.6-16.853333 34.346667z"  horiz-adv-x="1024" />

    
    <glyph glyph-name="arrow-up-reg" unicode="&#58900;" d="M938.666667 192a21.333333 21.333333 0 0 0-35.84-15.573333L506.453333 546.56 121.386667 176.64a21.333333 21.333333 0 1 0-29.653334 30.72l398.933334 384a21.333333 21.333333 0 0 0 29.44 0l411.093333-384A21.333333 21.333333 0 0 0 938.666667 192z"  horiz-adv-x="1024" />

    
    <glyph glyph-name="attachment-bold" unicode="&#58901;" d="M718.72 694.826667a190.293333 190.293333 0 0 1-135.253333-56.106667L345.173333 400.64a116.48 116.48 0 1 1 164.906667-164.906667l188.16 188.16L652.586667 469.333333l-188.373334-187.733333a51.84 51.84 0 1 0-73.386666 73.386667L629.12 593.066667a126.72 126.72 0 0 0 179.2-179.2L522.666667 128a201.6 201.6 0 1 0-285.013334 285.226667l209.28 209.28-45.866666 45.866666L186.453333 453.546667l-2.986666-3.2A266.24 266.24 0 0 1 560.213333 74.666667L853.333333 368.213333a192 192 0 0 1-134.613333 326.613334z"  horiz-adv-x="1024" />

    
    <glyph glyph-name="attachment-lit" unicode="&#58902;" d="M759.466667 701.866667c-51.2 0-98.133333-23.466667-130.133334-61.866667L413.866667 381.866667c-34.133333-40.533333-27.733333-100.266667 10.666666-134.4 40.533333-34.133333 100.266667-27.733333 134.4 12.8l157.866667 187.733333-17.066667 12.8-157.866666-187.733333c-25.6-32-72.533333-36.266667-102.4-10.666667s-36.266667 72.533333-10.666667 102.4l2.133333 2.133333 217.6 258.133334c25.6 29.866667 61.866667 49.066667 100.266667 51.2h12.8c83.2-2.133333 147.2-70.4 147.2-151.466667 0-34.133333-12.8-66.133333-34.133333-91.733333L614.4 125.866667c-78.933333-93.866667-232.533333-115.2-324.266667-21.333334-89.6 83.2-98.133333 211.2-17.066666 307.2l174.933333 211.2-17.066667 12.8-179.2-213.333333-2.133333-2.133333c-85.333333-104.533333-68.266667-260.266667 38.4-343.466667 102.4-81.066667 249.6-68.266667 337.066667 29.866667l2.133333 2.133333 262.4 313.6c59.733333 72.533333 49.066667 181.333333-23.466667 241.066667-29.866667 23.466667-68.266667 38.4-106.666666 38.4z"  horiz-adv-x="1024" />

    
    <glyph glyph-name="attachment-reg" unicode="&#58903;" d="M723.413333 698.666667a180.48 180.48 0 0 1-138.666666-64L368.213333 376.32a106.666667 106.666667 0 0 1 162.133334-136.106667l164.266666 195.84-33.28 27.733334-164.266666-195.84a62.506667 62.506667 0 1 0-95.786667 80.426666L618.666667 606.293333a137.386667 137.386667 0 0 0 210.56-176.64l-260.48-309.333333a212.266667 212.266667 0 0 0-325.12 272.853333L426.666667 611.626667 393.813333 640l-185.6-221.44-2.56-3.2A256 256 0 0 1 597.333333 86.826667l1.493334 1.706666 263.04 313.6a180.693333 180.693333 0 0 1-138.453334 296.533334z"  horiz-adv-x="1024" />

    
    <glyph glyph-name="barchart-lit" unicode="&#58904;" d="M853.333333 768H170.666667a85.333333 85.333333 0 0 1-85.333334-85.333333v-597.333334a85.333333 85.333333 0 0 1 85.333334-85.333333h682.666666a85.333333 85.333333 0 0 1 85.333334 85.333333V682.666667a85.333333 85.333333 0 0 1-85.333334 85.333333z m64-682.666667a64 64 0 0 0-64-64H170.666667a64 64 0 0 0-64 64V682.666667a64 64 0 0 0 64 64h682.666666a64 64 0 0 0 64-64z m-640 41.386667h21.333334v213.333333h-21.333334z m149.333334 0h21.333333v384h-21.333333z m149.333333 0h21.333333v298.666667h-21.333333z m149.333333 0h21.333334v469.333333h-21.333334z"  horiz-adv-x="1024" />

    
    <glyph glyph-name="barchart-fill" unicode="&#58905;" d="M1024 896H113.777778a113.777778 113.777778 0 0 1-113.777778-113.777778v-796.444444a113.777778 113.777778 0 0 1 113.777778-113.777778h910.222222a113.777778 113.777778 0 0 1 113.777778 113.777778V782.222222a113.777778 113.777778 0 0 1-113.777778 113.777778zM284.444444 41.244444H170.666667v284.444445h113.777777z m227.555556 0h-113.777778v512h113.777778z m227.555556 0h-113.777778v398.222223h113.777778z m227.555555 0h-113.777778v625.777778h113.777778z"  horiz-adv-x="1137" />

    
    <glyph glyph-name="barchart-bold" unicode="&#58906;" d="M855.253333 768h-682.666666a85.333333 85.333333 0 0 1-85.333334-85.333333v-597.333334a85.333333 85.333333 0 0 1 85.333334-85.333333h682.666666a85.333333 85.333333 0 0 1 85.333334 85.333333V682.666667a85.333333 85.333333 0 0 1-85.333334 85.333333z m21.333334-682.666667a21.333333 21.333333 0 0 0-21.333334-21.333333h-682.666666a21.333333 21.333333 0 0 0-21.333334 21.333333V682.666667a21.333333 21.333333 0 0 0 21.333334 21.333333h682.666666a21.333333 21.333333 0 0 0 21.333334-21.333333z m-597.333334 41.6h64v213.333334h-64z m135.253334 0h64v384h-64z m135.253333 0h64v298.666667h-64z m135.253333 0h64v469.333334h-64z"  horiz-adv-x="1024" />

    
    <glyph glyph-name="barchart-reg" unicode="&#58907;" d="M853.333333 768H170.666667a85.333333 85.333333 0 0 1-85.333334-85.333333v-597.333334a85.333333 85.333333 0 0 1 85.333334-85.333333h682.666666a85.333333 85.333333 0 0 1 85.333334 85.333333V682.666667a85.333333 85.333333 0 0 1-85.333334 85.333333z m42.666667-682.666667a42.666667 42.666667 0 0 0-42.666667-42.666666H170.666667a42.666667 42.666667 0 0 0-42.666667 42.666666V682.666667a42.666667 42.666667 0 0 0 42.666667 42.666666h682.666666a42.666667 42.666667 0 0 0 42.666667-42.666666z m-640 41.386667h42.666667v213.333333h-42.666667z m156.373333 0h42.666667v384h-42.666667z m156.373334 0h42.666666v298.666667h-42.666666z m156.373333 0h42.666667v469.333333H725.333333z"  horiz-adv-x="1024" />

    
    <glyph glyph-name="checked-circle" unicode="&#58908;" d="M512 810.666667a426.666667 426.666667 0 1 1 426.666667-426.666667A426.666667 426.666667 0 0 1 512 810.666667z m0-789.333334a362.666667 362.666667 0 1 0 362.666667 362.666667 362.666667 362.666667 0 0 0-362.666667-362.666667z m0 618.666667a256 256 0 1 1 256-256 256 256 0 0 1-256 256z"  horiz-adv-x="1024" />

    
    <glyph glyph-name="checked-square" unicode="&#58909;" d="M85.333333 810.666667h853.333334v-853.333334H85.333333z m664.106667-253.44L426.666667 281.386667l-153.813334 126.933333a42.666667 42.666667 0 0 1-55.253333 0 30.506667 30.506667 0 0 1-3.626667-42.666667 30.933333 30.933333 0 0 1 4.693334-4.48l181.333333-149.333333a42.666667 42.666667 0 0 1 54.826667 0l349.013333 298.666667a30.506667 30.506667 0 0 1 4.693333 42.666666l-4.693333 4.693334a42.666667 42.666667 0 0 1-54.4-0.64z"  horiz-adv-x="1024" />

    
    <glyph glyph-name="clock-fill" unicode="&#58910;" d="M512 810.666667a426.666667 426.666667 0 1 1 426.666667-426.666667A426.666667 426.666667 0 0 1 512 810.666667z m277.333333-468.053334H512a32 32 0 0 0-32 32v277.333334a32 32 0 0 0 64 0v-245.333334H789.333333a32 32 0 0 0 0-64z"  horiz-adv-x="1024" />

    
    <glyph glyph-name="clock-bold" unicode="&#58911;" d="M768 406.613333H543.573333v224a32 32 0 0 1-64 0v-256a32 32 0 0 1 32-32H768a32 32 0 0 1 0 64zM512 810.666667a426.666667 426.666667 0 1 1 426.666667-426.666667A426.666667 426.666667 0 0 1 512 810.666667z m0-789.333334a362.666667 362.666667 0 1 0 362.666667 362.666667 362.666667 362.666667 0 0 0-362.666667-362.666667z"  horiz-adv-x="1024" />

    
    <glyph glyph-name="clock-lit" unicode="&#58912;" d="M522.666667 651.946667h-21.333334v-288H789.333333v21.333333H522.666667zM512 810.666667a426.666667 426.666667 0 1 1 426.666667-426.666667A426.666667 426.666667 0 0 1 512 810.666667z m0-832a405.333333 405.333333 0 1 0 405.333333 405.333333 405.333333 405.333333 0 0 0-405.333333-405.333333z"  horiz-adv-x="1024" />

    
    <glyph glyph-name="clock-reg" unicode="&#58913;" d="M768 395.946667H533.333333v234.666666a21.333333 21.333333 0 0 1-42.666666 0v-256a21.333333 21.333333 0 0 1 21.333333-21.333333h256a21.333333 21.333333 0 0 1 0 42.666667zM512 810.666667a426.666667 426.666667 0 1 1 426.666667-426.666667A426.666667 426.666667 0 0 1 512 810.666667z m0-810.666667a384 384 0 1 0 384 384 384 384 0 0 0-384-384z"  horiz-adv-x="1024" />

    
    <glyph glyph-name="close-circlelit" unicode="&#58914;" d="M513.703827 812.086522a425.956739 425.956739 0 1 1 425.956739-425.956738 425.956739 425.956739 0 0 1-425.956739 425.956738z m0-830.61564a404.658902 404.658902 0 1 0 404.658902 404.658902 404.658902 404.658902 0 0 0-404.658902-404.658902z m218.08985 638.935108L513.703827 402.31614 295.613977 620.40599l-16.186356-16.186356 218.08985-218.08985-218.08985-218.089851 16.186356-16.186356 218.08985 218.302829 218.08985-218.302829 16.186356 16.186356-218.08985 218.089851 218.08985 218.302828z"  horiz-adv-x="1027" />

    
    <glyph glyph-name="close-circlebold" unicode="&#58915;" d="M513.703827 810.808652a425.956739 425.956739 0 1 1 425.956739-425.956739 425.956739 425.956739 0 0 1-425.956739 425.956739z m0-788.019966a362.063228 362.063228 0 1 0 362.063228 362.063227 362.063228 362.063228 0 0 0-362.063228-362.063227z m227.673877 585.477537a31.30782 31.30782 0 0 1-44.299501 0L516.259567 427.447587l-180.818635 180.818636a31.30782 31.30782 0 0 1-44.299501-44.299501l180.818636-180.818635-180.818636-180.818636a31.30782 31.30782 0 1 1 44.299501-44.299501l180.818635 180.818636 180.818636-180.818636a31.30782 31.30782 0 1 1 44.299501 44.299501l-180.818636 180.818636 180.818636 180.818635a31.30782 31.30782 0 0 1 0 44.299501z"  horiz-adv-x="1027" />

    
    <glyph glyph-name="close-circlefill" unicode="&#58916;" d="M514.129784 810.808652a425.956739 425.956739 0 1 1 425.956738-425.956739 425.956739 425.956739 0 0 1-425.956738 425.956739z m77.737105-444.485857l140.778702-140.778702a44.086522 44.086522 0 0 0 0-61.976705 43.873544 43.873544 0 0 0-61.976706 0l-140.778702 140.778702a26.409318 26.409318 0 0 1-37.271215 0l-140.99168-140.991681a43.873544 43.873544 0 1 0-61.976706 61.976706l140.778703 140.778702a26.409318 26.409318 0 0 1 0 37.271215l-140.778703 140.99168a44.086522 44.086522 0 0 0 0 61.976706 44.086522 44.086522 0 0 0 61.976706 0l140.778702-140.778703a26.409318 26.409318 0 0 1 37.271215 0l140.778702 140.778703a44.086522 44.086522 0 0 0 61.976705 0 44.086522 44.086522 0 0 0 0-61.976706l-140.778702-140.778702a26.409318 26.409318 0 0 1 0.212979-37.271215z"  horiz-adv-x="1027" />

    
    <glyph glyph-name="close-circlereg" unicode="&#58917;" d="M513.703827 810.808652a425.956739 425.956739 0 1 1 425.956739-425.956739 425.956739 425.956739 0 0 1-425.956739 425.956739z m0-809.317803a383.361065 383.361065 0 1 0 383.361065 383.361064 383.361065 383.361065 0 0 0-383.361065-383.361064z m230.016639 609.331114a23.001664 23.001664 0 0 1-32.372712 0l-195.088187-195.088186-195.088186 195.088186a23.001664 23.001664 0 0 1-32.372712-32.372712l195.088186-195.088186-195.088186-195.088186a23.001664 23.001664 0 0 1 32.372712-32.372713l195.088186 195.088187 195.088187-195.088187a23.001664 23.001664 0 0 1 32.372712 32.372713l-195.088186 195.088186 195.088186 195.088186a23.001664 23.001664 0 0 1 0 32.372712z"  horiz-adv-x="1027" />

    
    <glyph glyph-name="collect-bold" unicode="&#58918;" d="M513.703827 707.727121L617.637271 533.936772l14.056573-23.640599 26.622296-6.176373 198.282862-45.151414-133.963395-153.344426-18.103161-21.297837 2.768719-27.261231 18.529118-202.755408-186.995008 80.079867-25.131448 10.861897-25.131448-10.861897-186.78203-80.292845L319.467554 257.064892l2.555741 27.261231-18.103162 21.297837L170.382696 458.116473l198.282861 45.151414 26.622297 6.176373 14.26955 24.492512 104.146423 174.855241m0 85.191348A44.938436 44.938436 0 0 1 475.793677 768.212978l-120.971714-203.181364L124.166389 512.638935a42.595674 42.595674 0 0 1-23.42762-72.199667L255.574043 262.815308l-21.297837-235.554077a41.317804 41.317804 0 0 1 40.252912-49.410981 54.096506 54.096506 0 0 1 21.297837 4.685524l217.237937 93.284526 217.237937-93.284526a54.096506 54.096506 0 0 1 21.297837-4.685524 41.317804 41.317804 0 0 1 40.039933 49.410981l-21.297837 235.767055 155.687188 178.049917A42.595674 42.595674 0 0 1 903.028286 512.638935l-230.442595 53.031614L551.613977 768.212978a44.938436 44.938436 0 0 1-37.91015 24.279534z"  horiz-adv-x="1027" />

    
    <glyph glyph-name="collect-reg" unicode="&#58919;" d="M513.703827 749.044925l1.27787-1.916805 120.971714-203.181365 9.371048-15.760399 17.890183-4.046589L894.509151 471.747088h2.342762l-1.490848-1.916805-155.687188-178.049917-11.926789-13.843594 1.703827-18.103161 21.297837-235.767055a18.529118 18.529118 0 0 0 0-2.555741h-2.342762l-217.237937 93.284526-16.825291 7.241265-16.825291-7.241265-217.237937-93.284526h-2.342762A18.529118 18.529118 0 0 0 276.87188 22.788686l21.297837 235.767054 1.703827 18.103162-11.926789 13.630615-155.048253 178.688852-1.490848 1.064892h2.342762l230.442596 54.096506 17.890183 4.046589 9.371048 15.760399L512.212978 746.915141l1.277871 1.916806m0 43.873544A44.938436 44.938436 0 0 1 475.793677 768.212978l-120.971714-203.181364L124.166389 512.638935a42.595674 42.595674 0 0 1-23.42762-72.199667L255.574043 262.815308l-21.297837-235.554077a41.317804 41.317804 0 0 1 40.252912-49.410981 54.096506 54.096506 0 0 1 21.297837 4.685524l217.237937 93.284526 217.237937-93.284526a54.096506 54.096506 0 0 1 21.297837-4.685524 41.317804 41.317804 0 0 1 40.039933 49.410981l-21.297837 235.767055 155.687188 178.049917A42.595674 42.595674 0 0 1 903.028286 512.638935l-230.442595 53.031614L551.613977 768.212978a44.938436 44.938436 0 0 1-37.91015 24.279534z"  horiz-adv-x="1027" />

    
    <glyph glyph-name="collect-lit" unicode="&#58920;" d="M513.703827 771.833611a24.279534 24.279534 0 0 0 19.59401-13.843594L654.269551 555.234609l4.685524-7.8802 8.945091-2.129783 230.442596-52.392679a24.279534 24.279534 0 0 0 19.168053-14.482529 24.492512 24.492512 0 0 0-7.028286-23.001664l-155.687188-178.049917-5.963394-6.815308v-9.15807l21.297837-235.767055a26.622296 26.622296 0 0 0-5.32446-21.297837 17.677205 17.677205 0 0 0-13.630615-5.537437 33.011647 33.011647 0 0 0-12.991681 2.981697L522.009983 95.201331l-8.306156 3.620632-8.306156-3.620632-217.237937-93.710482a33.011647 33.011647 0 0 0-12.991681-2.981698 17.890183 17.890183 0 0 0-13.630615 5.537438 26.622296 26.622296 0 0 0-5.32446 21.297837l21.297837 235.767055v9.15807l-5.963394 6.815308-154.622296 177.836938a24.279534 24.279534 0 0 0-7.028286 23.001664 24.279534 24.279534 0 0 0 19.168053 14.482529l230.442596 52.392679 8.945091 2.129784 4.685524 7.880199 120.971714 203.181365a24.279534 24.279534 0 0 0 19.59401 13.843594m0 21.297837A44.938436 44.938436 0 0 1 475.793677 768.212978l-120.971714-203.181364L124.166389 512.638935a42.595674 42.595674 0 0 1-23.42762-72.199667L255.574043 262.815308l-21.297837-235.554077a41.317804 41.317804 0 0 1 40.252912-49.410981 54.096506 54.096506 0 0 1 21.297837 4.685524l217.237937 93.284526 217.237937-93.284526a54.096506 54.096506 0 0 1 21.297837-4.685524 41.317804 41.317804 0 0 1 40.039933 49.410981l-21.297837 235.767055 155.687188 178.049917A42.595674 42.595674 0 0 1 903.028286 512.638935l-230.442595 53.031614L551.613977 768.212978a44.938436 44.938436 0 0 1-37.91015 24.279534z"  horiz-adv-x="1027" />

    
    <glyph glyph-name="download-bold" unicode="&#58921;" d="M766.506667 513.493333a252.586667 252.586667 0 0 1-503.893334 0A205.226667 205.226667 0 0 1 265.173333 106.666667h21.333334a29.866667 29.866667 0 0 1 29.44 26.453333 38.186667 38.186667 0 0 1-9.386667 28.8 27.093333 27.093333 0 0 1-19.84 9.173333h-15.36a145.066667 145.066667 0 0 0-115.626667 96 151.04 151.04 0 0 0 41.386667 154.026667 125.44 125.44 0 0 0 94.08 33.92A31.146667 31.146667 0 0 1 320 484.693333a201.173333 201.173333 0 0 0 194.346667 202.666667 196.48 196.48 0 0 0 194.346666-202.666667 29.653333 29.653333 0 0 1 29.44-29.653333 139.52 139.52 0 0 0 136.533334-144.426667c0-77.44-71.253333-134.613333-137.173334-139.306666H725.333333a29.653333 29.653333 0 0 1 0-59.306667h17.92c91.946667 5.546667 194.986667 93.866667 194.986667 204.373333a209.28 209.28 0 0 1-171.733333 197.12zM618.666667 193.706667a32 32 0 0 1-22.826667-9.6l-51.84-52.693334V397.226667a32 32 0 0 1-64 0v-266.88l-53.333333 53.333333a32 32 0 0 1-45.013334-45.44l108.586667-106.666667A33.493333 33.493333 0 0 1 512 21.333333a32 32 0 0 1 22.613333 9.6l106.666667 108.373334A32 32 0 0 1 618.666667 193.706667z"  horiz-adv-x="1024" />

    
    <glyph glyph-name="collect-fill" unicode="&#58922;" d="M296.891847-17.464226a42.595674 42.595674 0 0 0-61.550749 44.725457l21.297837 235.767055-155.47421 177.836939A42.595674 42.595674 0 0 0 124.592346 512.638935l230.442596 52.392679L476.006656 768.212978a42.595674 42.595674 0 0 0 76.033277 0l120.971714-203.181364L903.454243 512.638935a42.595674 42.595674 0 0 0 23.427621-72.199667l-155.687188-178.049917 21.297836-235.767055a42.595674 42.595674 0 0 0-61.550748-44.725457l-217.237937 93.284525z"  horiz-adv-x="1027" />

    
    <glyph glyph-name="download-fill" unicode="&#58923;" d="M766.506667 513.493333a252.586667 252.586667 0 0 1-503.893334 0A205.226667 205.226667 0 0 1 265.173333 106.666667h248.106667a33.493333 33.493333 0 0 0-22.613333 9.173333l-108.586667 106.666667A32 32 0 0 0 426.666667 269.013333l53.973333-53.333333V460.373333a32 32 0 0 0 64 0v-243.626666L597.333333 269.44a32 32 0 1 0 45.653334-44.8l-106.666667-108.373333a32 32 0 0 0-22.613333-9.6h230.4c91.946667 5.546667 194.986667 99.2 194.986666 209.706666a209.28 209.28 0 0 1-172.586666 197.12z"  horiz-adv-x="1024" />

    
    <glyph glyph-name="download-lit" unicode="&#58924;" d="M776.533333 501.546667l-17.066666 2.56-1.706667 17.066666A246.826667 246.826667 0 0 1 514.773333 746.666667a247.04 247.04 0 0 1-242.986666-225.493334l-1.706667-17.28-17.066667-2.346666a197.333333 197.333333 0 0 1-167.466666-192 193.92 193.92 0 0 1 167.04-192h49.92a9.386667 9.386667 0 0 1 8.746666 7.253333 18.346667 18.346667 0 0 1-4.053333 13.866667 6.826667 6.826667 0 0 1-4.48 2.56H256a174.72 174.72 0 0 0-139.306667 115.84c-21.333333 62.293333-3.413333 129.493333 48.426667 184.32a152.746667 152.746667 0 0 0 114.773333 42.666666 10.88 10.88 0 0 1 8.533334 8.96c0 128 103.68 234.666667 226.56 234.666667a228.48 228.48 0 0 0 226.56-234.666667 8.96 8.96 0 0 1 8.96-8.96 168.746667 168.746667 0 0 0 165.973333-174.293333c0-93.653333-85.333333-162.773333-166.4-168.746667h-49.706667a8.96 8.96 0 0 1 0-17.92h53.973334c87.04 5.12 184.32 88.533333 184.32 192a199.253333 199.253333 0 0 1-162.133334 186.453334zM618.666667 151.04a10.666667 10.666667 0 0 1-7.68-3.2l-88.32-90.026667V375.893333A10.026667 10.026667 0 0 1 512 384a10.026667 10.026667 0 0 1-10.666667-8.96v-317.226667l-90.24 89.386667a10.666667 10.666667 0 0 1-14.933333-15.146667l108.586667-106.666666A10.666667 10.666667 0 0 1 512 21.333333a10.666667 10.666667 0 0 1 7.466667 3.2l106.666666 108.373334a10.666667 10.666667 0 0 1-7.68 18.133333z"  horiz-adv-x="1024" />

    
    <glyph glyph-name="edit-bold" unicode="&#58925;" d="M864.64 518.613333a32 32 0 0 1-32-32V64H192V704h414.72a32 32 0 0 1 0 64H160.64A32 32 0 0 1 128 735.36v-704A32 32 0 0 1 160.64 0h704A32 32 0 0 1 896 32V486.613333a32 32 0 0 1-31.36 32z m67.413333 283.093334a32 32 0 0 1-45.226666 0L348.373333 262.186667a32 32 0 1 1 45.226667-45.226667L932.053333 756.48a32 32 0 0 1 0 45.226667z"  horiz-adv-x="1024" />

    
    <glyph glyph-name="download-reg" unicode="&#58926;" d="M771.413333 507.52l-8.32 1.28v8.32A251.306667 251.306667 0 0 1 514.773333 746.666667a251.306667 251.306667 0 0 1-247.466666-229.333334v-8.533333l-8.533334-1.28A203.306667 203.306667 0 0 1 85.333333 310.186667a200.32 200.32 0 0 1 173.44-198.186667h40.96a19.626667 19.626667 0 0 1 19.2 16.853333 28.373333 28.373333 0 0 1-6.613333 21.333334 17.066667 17.066667 0 0 1-12.16 5.973333h-36.266667a159.573333 159.573333 0 0 0-128 106.666667 165.546667 165.546667 0 0 0 44.8 168.96A138.88 138.88 0 0 0 285.653333 469.333333a21.333333 21.333333 0 0 1 18.773334 19.413334 217.386667 217.386667 0 0 0 210.346666 219.093333A213.333333 213.333333 0 0 0 725.333333 488.96a19.413333 19.413333 0 0 1 19.2-19.413333 153.813333 153.813333 0 0 0 151.466667-159.36c0-85.333333-77.866667-149.333333-151.68-153.813334h-35.84a19.413333 19.413333 0 0 1 0-38.826666h40.533333c89.6 5.333333 189.653333 91.52 189.653334 197.973333a205.013333 205.013333 0 0 1-167.253334 192zM618.666667 172.373333a21.333333 21.333333 0 0 1-15.146667-6.4L533.333333 94.72V397.226667a21.333333 21.333333 0 0 1-42.666666 0v-303.146667l-72.106667 71.466667a21.333333 21.333333 0 1 1-30.08-30.293334l108.586667-106.666666a23.04 23.04 0 0 1 14.933333-7.253334 21.333333 21.333333 0 0 1 15.146667 6.4l106.666666 108.373334a21.333333 21.333333 0 0 1-15.146666 36.266666z"  horiz-adv-x="1024" />

    
    <glyph glyph-name="edit-lit" unicode="&#58927;" d="M874.666667 21.333333H149.333333V746.666667h462.933334V768H128v-768h768V486.613333h-21.333333z m-490.666667 210.773334l561.706667 563.2-14.933334 15.36-562.133333-563.413334z"  horiz-adv-x="1024" />

    
    <glyph glyph-name="edit-reg" unicode="&#58928;" d="M853.333333 42.666667H170.666667V725.333333h430.72V768H128v-768h768V486.613333h-42.666667z m-472.533333 181.973333l554.666667 556.373333L906.026667 810.666667l-554.666667-556.373334z"  horiz-adv-x="1024" />

    
    <glyph glyph-name="eight-fillcircle" unicode="&#58929;" d="M533.333333 409.173333a83.2 83.2 0 0 1 24.96 58.24A44.16 44.16 0 0 1 512 515.626667a40.32 40.32 0 0 1-42.666667-42.666667c0-33.28 27.733333-49.28 64-63.786667zM487.04 368.64a82.986667 82.986667 0 0 1-31.786667-64 53.333333 53.333333 0 0 1 58.24-51.626667A45.44 45.44 0 0 1 564.053333 298.666667c0 36.693333-30.72 51.84-77.013333 69.973333zM512 810.666667a426.666667 426.666667 0 1 1 426.666667-426.666667A426.666667 426.666667 0 0 1 512 810.666667z m0-606.72c-66.133333 0-116.053333 38.613333-116.053333 93.013333a100.906667 100.906667 0 0 0 59.733333 90.453333v2.346667a99.2 99.2 0 0 0-46.08 82.773333c0 55.893333 44.16 91.52 104.746667 91.52s100.906667-37.12 100.906666-92.586666a100.693333 100.693333 0 0 0-44.586666-79.146667v-2.56a100.693333 100.693333 0 0 0 58.24-92.8c-0.426667-52.693333-46.933333-93.013333-116.906667-93.013333z"  horiz-adv-x="1024" />

    
    <glyph glyph-name="eight-linecircle" unicode="&#58930;" d="M512 810.666667a426.666667 426.666667 0 1 1 426.666667-426.666667A426.666667 426.666667 0 0 1 512 810.666667z m0-789.333334a362.666667 362.666667 0 1 0 362.666667 362.666667 362.666667 362.666667 0 0 0-362.666667-362.666667z m58.24 368.426667v2.56a100.693333 100.693333 0 0 1 44.586667 79.146667c0 55.466667-39.466667 92.586667-100.906667 92.586666s-104.746667-35.626667-104.746667-91.52a99.2 99.2 0 0 1 46.08-82.773333v-2.346667a100.906667 100.906667 0 0 1-59.733333-90.453333c0-54.4 49.92-93.013333 116.053333-93.013333 70.4 0 116.906667 40.32 116.906667 93.013333a100.693333 100.693333 0 0 1-58.24 92.8zM512 515.626667a44.16 44.16 0 0 0 46.08-48.213334A83.2 83.2 0 0 0 533.333333 409.173333c-36.48 14.506667-64 30.506667-64 64a40.32 40.32 0 0 0 42.666667 42.453334z m1.066667-262.826667a53.333333 53.333333 0 0 0-58.24 51.626667 82.986667 82.986667 0 0 0 31.786666 64c45.226667-18.133333 77.013333-33.28 77.013334-69.333334a45.44 45.44 0 0 0-50.133334-46.293333z"  horiz-adv-x="1024" />

    
    <glyph glyph-name="expand-reg" unicode="&#58931;" d="M853.333333 42.666667H576v-42.666667h320V320h-42.666667zM170.666667 42.666667V320H128v-320h320v42.666667zM128 448h42.666667V725.333333h277.333333V768H128zM576 768v-42.666667h277.333333v-277.333333h42.666667V768z"  horiz-adv-x="1024" />

    
    <glyph glyph-name="expand-bold" unicode="&#58932;" d="M832 64H576v-64h320V320h-64zM192 64V320H128v-320h320v64zM128 448h64V704h256V768H128zM576 768v-64h256v-256h64V768z"  horiz-adv-x="1024" />

    
    <glyph glyph-name="expand-lit" unicode="&#58933;" d="M874.666667 21.333333H576v-21.333333h320V320h-21.333333zM149.333333 21.333333V320H128v-320h320v21.333333zM128 448h21.333333V746.666667h298.666667V768H128zM576 768v-21.333333h298.666667v-298.666667h21.333333V768z"  horiz-adv-x="1024" />

    
    <glyph glyph-name="eye-bold" unicode="&#58934;" d="M513.493333 604.586667c152.32 0 298.666667-91.306667 357.973334-220.16-58.453333-128-204.8-219.946667-357.973334-219.946667S214.826667 256 156.373333 384c58.24 128 204.586667 220.16 357.12 220.16m0-390.613333a170.666667 170.666667 0 1 1-170.666666 170.666666 170.666667 170.666667 0 0 1 170.666666-170.666666m0 454.613333c-186.453333 0-365.866667-117.973333-426.666666-284.16 60.373333-165.973333 239.786667-284.16 426.666666-284.16s366.72 117.973333 426.666667 284.16c-61.226667 165.973333-241.493333 284.16-426.666667 284.16z m0-390.613333a106.666667 106.666667 0 1 0 106.666667 106.666666 106.666667 106.666667 0 0 0-106.666667-106.666666z"  horiz-adv-x="1024" />

    
    <glyph glyph-name="eye-fill" unicode="&#58935;" d="M512 668.586667C325.546667 668.586667 146.133333 550.4 85.333333 384c60.8-165.546667 240.213333-283.733333 426.666667-283.733333S878.506667 218.453333 938.666667 384c-61.013333 166.4-241.28 284.586667-426.666667 284.586667z m0-461.653334a177.493333 177.493333 0 1 0 177.493333 177.066667A178.133333 178.133333 0 0 0 512 206.933333z m106.666667 177.066667a106.666667 106.666667 0 1 0-106.666667 106.666667 106.666667 106.666667 0 0 0 106.666667-106.666667z"  horiz-adv-x="1024" />

    
    <glyph glyph-name="eye-lit" unicode="&#58936;" d="M512 647.253333c175.36 0 343.893333-110.08 404.266667-262.826666C855.893333 231.68 687.36 121.6 512 121.6S167.466667 231.68 107.946667 384C167.466667 537.173333 335.573333 647.253333 512 647.253333M512 256a128 128 0 1 1-128 128 128 128 0 0 1 128-128m0 411.946667C324.693333 668.586667 145.493333 550.4 85.333333 384c60.16-165.546667 239.36-283.733333 426.666667-283.733333S877.866667 218.453333 938.666667 384c-61.653333 166.4-241.92 284.586667-426.666667 284.586667zM512 277.333333a106.666667 106.666667 0 1 0 106.666667 106.666667 106.666667 106.666667 0 0 0-106.666667-106.666667z"  horiz-adv-x="1024" />

    
    <glyph glyph-name="five-linecircle" unicode="&#58937;" d="M524.373333 439.466667a89.6 89.6 0 0 1-42.666666-10.026667l6.613333 73.813333h126.293333v57.6h-184.96l-9.386666-168.32 31.36-21.333333a85.333333 85.333333 0 0 0 52.266666 18.346667 56.32 56.32 0 0 0 58.666667-62.933334 58.453333 58.453333 0 0 0-61.653333-64A106.666667 106.666667 0 0 0 424.533333 298.666667l-32-44.16a158.506667 158.506667 0 0 1 117.333334-47.36 117.12 117.12 0 0 1 121.6 122.026666c0 76.16-48.853333 110.293333-107.093334 110.293334zM512 810.666667a426.666667 426.666667 0 1 1 426.666667-426.666667A426.666667 426.666667 0 0 1 512 810.666667z m0-789.333334a362.666667 362.666667 0 1 0 362.666667 362.666667 362.666667 362.666667 0 0 0-362.666667-362.666667z"  horiz-adv-x="1024" />

    
    <glyph glyph-name="four-fillcircle" unicode="&#58938;" d="M483.84 439.466667l-53.973333-86.4h80.64v70.826666c0 20.266667 1.92 51.626667 2.773333 71.893334H512c-8.96-18.346667-18.346667-37.546667-28.16-56.32zM512 810.666667a426.666667 426.666667 0 1 1 426.666667-426.666667A426.666667 426.666667 0 0 1 512 810.666667z m104.106667-510.293334H576v-90.026666h-64v90.026666h-149.333333v46.933334l129.493333 210.346666H576v-204.586666h41.173333z"  horiz-adv-x="1024" />

    
    <glyph glyph-name="eye-reg" unicode="&#58939;" d="M512 625.92c163.413333 0 320-100.693333 380.8-241.92C833.706667 243.626667 676.053333 142.933333 512 142.933333S190.293333 243.626667 131.2 384C190.293333 525.226667 347.52 625.92 512 625.92M512 234.666667a149.333333 149.333333 0 1 1-149.333333 149.333333 149.333333 149.333333 0 0 1 149.333333-149.333333m0 433.28C325.12 668.586667 145.706667 550.4 85.333333 384c60.373333-165.546667 239.786667-283.733333 426.666667-283.733333S878.293333 218.453333 938.666667 384c-61.226667 166.4-241.493333 284.586667-426.666667 284.586667zM512 277.333333a106.666667 106.666667 0 1 0 106.666667 106.666667 106.666667 106.666667 0 0 0-106.666667-106.666667z"  horiz-adv-x="1024" />

    
    <glyph glyph-name="gps-fill" unicode="&#58940;" d="M516.259567 810.808652A335.014975 335.014975 0 0 1 181.457571 477.071547c0-178.049917 299.873544-494.322795 312.652246-507.740432a30.455907 30.455907 0 0 1 21.297837-9.584027 29.391015 29.391015 0 0 1 21.297837 10.43594l103.933444 118.84193C781.204659 257.064892 851.913478 388.685524 851.913478 476.858569A335.014975 335.014975 0 0 1 516.259567 810.808652z m0-486.655574a152.066556 152.066556 0 1 0 152.066556 152.066556 152.066556 152.066556 0 0 0-152.066556-151.214642z"  horiz-adv-x="1027" />

    
    <glyph glyph-name="four-linecircle" unicode="&#58941;" d="M512 810.666667a426.666667 426.666667 0 1 1 426.666667-426.666667A426.666667 426.666667 0 0 1 512 810.666667z m0-789.333334a362.666667 362.666667 0 1 0 362.666667 362.666667 362.666667 362.666667 0 0 0-362.666667-362.666667z m64 536.32h-83.84L362.666667 347.306667v-46.933334h147.84v-90.026666h64v90.026666h41.173333v52.693334H576z m-64-133.76v-70.826666h-82.133333l53.973333 86.4c9.813333 18.773333 19.2 37.973333 27.733333 56.32h1.706667c-1.28-20.266667-2.773333-51.626667-2.773333-71.893334z"  horiz-adv-x="1024" />

    
    <glyph glyph-name="gps-bold" unicode="&#58942;" d="M511.148087 810.808652A335.014975 335.014975 0 0 1 177.198003 477.071547C177.198003 299.660566 477.071547-17.251248 489.85025-30.668885a30.455907 30.455907 0 0 1 21.297837-10.43594 29.391015 29.391015 0 0 1 21.297836 10.43594l106.489185 119.906822c138.009983 168.891847 207.866889 299.447587 207.866889 387.83361A335.014975 335.014975 0 0 1 511.148087 810.808652z m78.163061-681.530782L511.148087 40.252912c-116.925125 127.787022-270.056572 331.8203-270.056573 436.818635a270.908486 270.908486 0 0 0 541.603993 0c0-41.317804-24.918469-141.204659-192.745424-346.728785z m-79.65391 501.138103a153.344426 153.344426 0 1 1 153.344426-153.344426 153.344426 153.344426 0 0 1-153.344426 153.344426z m0-242.795341a89.450915 89.450915 0 1 0 89.450915 89.450915 89.450915 89.450915 0 0 0-89.450915-89.450915z"  horiz-adv-x="1027" />

    
    <glyph glyph-name="gps-lit" unicode="&#58943;" d="M513.916805 810.808652A335.014975 335.014975 0 0 1 179.327787 477.071547c0-178.049917 299.873544-494.322795 312.652246-507.740432a30.455907 30.455907 0 0 1 21.297837-9.584027 29.391015 29.391015 0 0 1 21.297837 10.43594l103.933444 118.84193c138.009983 168.891847 207.866889 299.447587 207.866889 387.833611A335.014975 335.014975 0 0 1 513.916805 810.808652z m110.961731-708.579035l-103.933444-119.054908a8.519135 8.519135 0 0 0-6.60233-2.981697 9.15807 9.15807 0 0 0-6.602329 2.768718 2251.394343 2251.394343 0 0 0-159.520799 190.189684c-96.479201 129.703827-147.381032 234.276206-147.381032 302.855242a313.50416 313.50416 0 0 0 626.795341 0c-0.212978-56.439268-35.354409-167.826955-202.755407-372.712147zM511.148087 630.415973a153.344426 153.344426 0 1 1 153.344425-153.344426 153.344426 153.344426 0 0 1-153.344425 153.344426z m0-285.391015a132.046589 132.046589 0 1 0 132.046589 132.046589 132.259567 132.259567 0 0 0-132.046589-132.046589z"  horiz-adv-x="1027" />

    
    <glyph glyph-name="five-fillcircle" unicode="&#58944;" d="M512 810.666667a426.666667 426.666667 0 1 1 426.666667-426.666667A426.666667 426.666667 0 0 1 512 810.666667z m-2.133333-603.52a158.506667 158.506667 0 0 0-117.333334 47.36L424.533333 298.666667a106.666667 106.666667 0 0 1 76.373334-35.413334 58.453333 58.453333 0 0 1 61.653333 64 56.32 56.32 0 0 1-58.666667 62.933334 85.333333 85.333333 0 0 1-52.266666-18.346667l-31.36 21.333333 9.386666 168.32h185.813334v-57.6h-126.293334l-6.613333-73.813333a89.6 89.6 0 0 0 42.666667 10.026667c58.24 0 106.666667-34.773333 106.666666-110.293334a117.12 117.12 0 0 0-122.026666-122.666666z"  horiz-adv-x="1024" />

    
    <glyph glyph-name="gps-reg" unicode="&#58945;" d="M511.148087 810.808652A335.014975 335.014975 0 0 1 175.920133 477.071547c0-178.049917 299.873544-494.322795 312.652246-507.740432A30.455907 30.455907 0 0 1 511.148087-41.104825a29.391015 29.391015 0 0 1 21.297836 10.43594l103.933445 118.84193c138.009983 168.891847 207.866889 299.447587 207.866888 387.833611A335.014975 335.014975 0 0 1 511.148087 810.808652z m93.710482-694.096506L511.148087 8.306156c-106.489185 113.517471-291.780366 344.173045-291.780367 468.552413a292.206323 292.206323 0 0 0 584.199668 0c-0.851913-53.670549-35.354409-159.946755-198.708819-360.146423z m-96.479201 513.703827a153.344426 153.344426 0 1 1 153.344426-153.344426 153.344426 153.344426 0 0 1-153.344426 153.344426z m0-264.093178a110.748752 110.748752 0 1 0 110.748752 110.748752 110.96173 110.96173 0 0 0-110.748752-110.748752z"  horiz-adv-x="1027" />

    
    <glyph glyph-name="heart-fill" unicode="&#58946;" d="M714.026667 740.48a226.133333 226.133333 0 0 1-156.8-62.72c-4.053333-3.84-25.6-25.6-42.666667-42.666667l-42.666667 42.666667a227.626667 227.626667 0 0 1-384-164.266667 239.146667 239.146667 0 0 1 68.053334-162.133333L437.973333 66.133333a108.16 108.16 0 0 1 77.013334-36.906666 108.16 108.16 0 0 1 77.013333 36.906666l281.6 284.373334 1.92 2.133333c33.92 42.666667 66.133333 82.346667 66.133333 160A228.053333 228.053333 0 0 1 714.026667 740.48z"  horiz-adv-x="1024" />

    
    <glyph glyph-name="heart-bold" unicode="&#58947;" d="M708.48 674.773333A164.053333 164.053333 0 0 0 872.106667 512c0-54.186667-20.053333-80.213333-50.56-118.186667L541.226667 109.653333c-18.133333-18.133333-27.733333-18.133333-31.786667-18.133333s-13.653333 0-31.573333 17.92L197.12 393.173333A172.16 172.16 0 0 0 146.773333 512a163.626667 163.626667 0 0 0 276.266667 118.613333l41.6-41.386666 45.653333-45.44L554.666667 588.8c25.813333 26.24 37.546667 38.186667 40.533333 40.96a162.346667 162.346667 0 0 0 112.64 45.013333m0 64a226.133333 226.133333 0 0 1-156.8-62.72c-4.053333-3.84-25.6-25.6-42.666667-42.666666l-42.666666 42.666666a227.626667 227.626667 0 0 1-384-164.266666 239.146667 239.146667 0 0 1 68.053333-162.133334L432.426667 64a108.16 108.16 0 0 1 77.013333-36.906667A108.16 108.16 0 0 1 586.453333 64l281.6 284.8 1.92 2.133333c33.92 42.666667 66.133333 82.346667 66.133334 160A228.053333 228.053333 0 0 1 708.48 738.773333z"  horiz-adv-x="1024" />

    
    <glyph glyph-name="heart-lit" unicode="&#58948;" d="M713.173333 717.44A206.72 206.72 0 0 0 919.68 512c0-69.76-28.16-105.386667-61.013333-146.133333L576 79.573333a86.826667 86.826667 0 0 0-62.08-30.506666 86.826667 86.826667 0 0 0-61.866667 30.506666L170.666667 362.666667a218.666667 218.666667 0 0 0-61.653334 149.333333 206.293333 206.293333 0 0 0 348.373334 149.333333l42.666666-42.666666 15.146667-15.146667 15.146667 15.36c22.826667 23.253333 38.4 38.826667 41.6 42.666667a205.013333 205.013333 0 0 0 142.08 56.746666m0 21.333334a226.133333 226.133333 0 0 1-156.8-62.72c-4.053333-3.84-25.6-25.6-42.666667-42.666667l-42.666667 42.666667a227.626667 227.626667 0 0 1-384-164.266667 239.146667 239.146667 0 0 1 68.053334-162.133333L437.333333 64a108.16 108.16 0 0 1 77.013334-36.906667A108.16 108.16 0 0 1 591.36 64l281.6 284.8 1.92 2.133333c33.92 42.666667 66.133333 82.346667 66.133333 160A228.053333 228.053333 0 0 1 713.173333 738.773333z"  horiz-adv-x="1024" />

    
    <glyph glyph-name="heart-reg" unicode="&#58949;" d="M714.453333 696.106667A185.386667 185.386667 0 0 0 899.626667 512c0-62.08-23.253333-91.733333-55.68-132.266667L562.56 94.72a64 64 0 0 0-46.933333-24.32A64 64 0 0 0 469.333333 94.506667L187.733333 378.453333A197.546667 197.546667 0 0 0 131.626667 512a184.96 184.96 0 0 0 312.106666 134.186667l42.666667-42.666667 30.506667-30.293333 29.226666 30.506666c26.453333 26.88 38.4 38.826667 40.96 41.386667a183.68 183.68 0 0 0 128 50.986667m0 42.666666a226.133333 226.133333 0 0 1-156.8-62.72c-4.053333-3.84-25.6-25.6-42.666666-42.666666l-42.666667 42.666666a227.626667 227.626667 0 0 1-384-164.266666 239.146667 239.146667 0 0 1 68.053333-162.133334L438.613333 64a108.16 108.16 0 0 1 77.013334-36.906667A108.16 108.16 0 0 1 592.64 64L874.666667 348.8l1.92 2.133333c33.92 42.666667 66.133333 82.346667 66.133333 160a228.053333 228.053333 0 0 1-228.266667 227.84z"  horiz-adv-x="1024" />

    
    <glyph glyph-name="help-bold" unicode="&#58950;" d="M554.666667 809.386667a426.666667 426.666667 0 1 1 381.866666-381.013334A426.666667 426.666667 0 0 1 554.666667 809.386667z m3.626666-784.213334a362.666667 362.666667 0 1 0 313.386667 312.32 362.666667 362.666667 0 0 0-312.32-312.32z m-42.666666 173.653334a55.466667 55.466667 0 1 1 42.666666-42.666667 55.466667 55.466667 0 0 1-42.453333 42.666667z m19.626666 469.333333q-166.613333 5.333333-201.173333-151.893333l81.493333-27.093334c12.373333 68.693333 49.28 101.333333 112.64 97.706667a72.533333 72.533333 0 0 0 74.453334-70.613333c5.333333-37.973333-20.053333-73.173333-67.626667-106.666667a162.133333 162.133333 0 0 1-75.093333-138.453333V256h85.333333v12.8a99.626667 99.626667 0 0 0 46.506667 81.493333c69.546667 48.853333 104.533333 103.04 102.826666 161.706667-8.746667 98.773333-60.373333 149.333333-158.933333 155.733333z"  horiz-adv-x="1024" />

    
    <glyph glyph-name="help-fill" unicode="&#58951;" d="M512 810.666667a426.666667 426.666667 0 1 1 426.666667-426.666667A426.666667 426.666667 0 0 1 512 810.666667z m-10.666667-720.853334a55.466667 55.466667 0 1 0 55.466667 55.466667 55.466667 55.466667 0 0 0-55.466667-54.613333z m87.04 262.186667a99.626667 99.626667 0 0 1-46.506666-81.493333V256h-85.333334v16.426667a162.133333 162.133333 0 0 0 75.093334 138.453333c47.573333 32.64 72.96 67.84 67.626666 106.666667a72.533333 72.533333 0 0 1-74.453333 70.613333c-64 3.626667-100.266667-29.013333-112.64-97.706667l-81.493333 26.88q34.346667 157.44 201.173333 151.893334c98.773333-5.333333 149.333333-56.96 159.146667-154.666667 1.706667-59.52-33.92-113.706667-102.613334-162.56z"  horiz-adv-x="1024" />

    
    <glyph glyph-name="help-lit" unicode="&#58952;" d="M512 810.666667a426.666667 426.666667 0 1 1 426.666667-426.666667A426.666667 426.666667 0 0 1 512 810.666667z m0-832a405.333333 405.333333 0 1 0 405.333333 405.333333 405.333333 405.333333 0 0 0-405.333333-405.333333z m-7.68 189.013333A39.68 39.68 0 1 1 542.506667 128a37.546667 37.546667 0 0 1-38.186667 40.533333z m16.426667 498.986667c-136.533333 0-165.546667-112.853333-162.986667-148.053334h20.266667c9.813333 108.373333 94.506667 126.72 141.44 126.72 75.733333 0 128-45.013333 128-98.346666 0-118.186667-183.893333-170.666667-156.586667-290.56h23.253333c-25.173333 109.866667 159.146667 161.92 159.146667 292.053333-0.213333 66.56-68.053333 119.04-152.533333 119.04z"  horiz-adv-x="1024" />

    
    <glyph glyph-name="home-bold" unicode="&#58953;" d="M514.768719 704.319468a28.113145 28.113145 0 0 0 16.612313-4.472546L816.985025 474.302829v-392.945092c0-15.121464-3.620632-15.121464-12.139767-15.121464h-163.993345V180.392679c0 66.023295-74.329451 106.489185-127.787021 106.489185-58.78203 0-124.592346-45.577371-124.592346-106.489185V65.384359h-161.011647a13.204659 13.204659 0 0 0-15.121465 15.121465V473.876872L498.369384 700.911814a28.326123 28.326123 0 0 0 16.399335 4.259567m0 63.893511a90.728785 90.728785 0 0 1-56.22629-18.31614L99.886855 465.996672a24.492512 24.492512 0 0 1-9.15807-33.437604 26.622296 26.622296 0 0 1 27.261232-18.31614H149.084859v-332.885191A76.672213 76.672213 0 0 1 227.460899 1.490849h194.449251a28.75208 28.75208 0 0 1 30.455907 30.455906V180.392679c0 21.297837 33.437604 42.595674 60.698835 42.595674s63.893511-21.297837 63.893511-42.595674v-147.59401A28.75208 28.75208 0 0 1 607.414309 1.490849h197.430949a72.625624 72.625624 0 0 1 76.033278 79.014975V414.455907h30.455907a29.178037 29.178037 0 0 1 27.261231 21.297837A30.242928 30.242928 0 0 1 926.455907 470.043261L570.78203 750.96173A90.728785 90.728785 0 0 1 514.768719 768.212978z"  horiz-adv-x="1027" />

    
    <glyph glyph-name="help-reg" unicode="&#58954;" d="M512 810.666667a426.666667 426.666667 0 1 1 426.666667-426.666667A426.666667 426.666667 0 0 1 512 810.666667z m0-810.666667a384 384 0 1 0 384 384 384 384 0 0 0-384-384z m2.56 677.333333A170.666667 170.666667 0 0 1 384 626.986667a159.786667 159.786667 0 0 1-42.666667-108.16v-7.893334l42.666667-9.173333 1.28 11.946667c10.666667 106.666667 85.333333 121.813333 128 121.813333 66.773333 0 117.12-37.76 117.12-87.68s-38.186667-89.813333-78.506667-130.346667c-46.08-46.293333-93.44-94.08-77.866666-162.773333l1.92-8.32h45.013333l-2.986667 13.013333c-11.52 49.706667 25.6 86.826667 68.48 129.706667s90.88 91.093333 90.88 160c0.213333 72.32-71.466667 129.066667-162.773333 129.066667z m-16.426667-498.133333a50.346667 50.346667 0 1 1 48.853334-51.2 48.64 48.64 0 0 1-48.853334 51.2z"  horiz-adv-x="1024" />

    
    <glyph glyph-name="home-lit" unicode="&#58955;" d="M512.851913 746.915141a69.643927 69.643927 0 0 0 42.595674-13.630615l356.312812-281.131448a9.371048 9.371048 0 0 0 4.259568-11.287853 8.093178 8.093178 0 0 0-6.60233-5.111481h-51.753743v-354.396007A51.753744 51.753744 0 0 0 803.141431 22.788686h-197.643927c-6.389351 0-9.15807 2.55574-9.15807 9.158069V180.392679c0 38.336106-51.327787 63.893511-85.191347 63.893511-37.271215 0-81.996672-28.539101-81.996673-63.893511v-147.59401c0-6.389351-2.55574-9.15807-9.15807-9.15807H225.757072a55.161398 55.161398 0 0 0-57.717139 57.717138V435.753744H116.28619a8.732113 8.732113 0 0 0-6.60233 2.129783V442.356073a5.537438 5.537438 0 0 0 0 4.898503h1.916806L111.387687 448.745424 470.043261 734.349418a69.643927 69.643927 0 0 0 42.595674 13.630615m0 21.297837a90.728785 90.728785 0 0 1-56.226289-18.31614L98.183028 465.996672a24.492512 24.492512 0 0 1-9.15807-33.437604 26.622296 26.622296 0 0 1 27.261232-18.31614h30.455907v-332.885191A76.672213 76.672213 0 0 1 225.757072 1.490849h194.449251a28.75208 28.75208 0 0 1 30.455907 30.455906V180.392679c0 21.297837 33.437604 42.595674 60.698835 42.595674s63.893511-21.297837 63.893511-42.595674v-147.59401A28.75208 28.75208 0 0 1 605.497504 1.490849h197.430949a72.625624 72.625624 0 0 1 76.033277 79.014975V414.455907h30.455907a29.178037 29.178037 0 0 1 27.261232 21.297837 30.242928 30.242928 0 0 1-12.139768 34.289517L569.078203 750.96173A90.728785 90.728785 0 0 1 512.851913 768.212978z"  horiz-adv-x="1027" />

    
    <glyph glyph-name="home-reg" unicode="&#58956;" d="M514.768719 725.617304a48.985025 48.985025 0 0 0 29.816972-8.945091L873.211314 457.051581h-34.928452v-375.693844c0-37.271215-25.131448-37.271215-33.437604-37.271215h-185.291181v136.306157c0 51.966722-63.893511 85.191348-106.489185 85.191348-48.772047 0-103.294509-36.419301-103.294509-85.191348V44.086522h-182.309484A34.076539 34.076539 0 0 0 191.680532 81.357737V457.051581H156.965058L485.164725 717.524126A48.772047 48.772047 0 0 0 514.768719 725.617304m0 42.595674a90.728785 90.728785 0 0 1-56.22629-18.316139L99.886855 465.996672a24.492512 24.492512 0 0 1-9.15807-33.437604 26.622296 26.622296 0 0 1 27.261232-18.31614H149.084859v-332.885191A76.672213 76.672213 0 0 1 227.460899 1.490849h194.449251a28.75208 28.75208 0 0 1 30.455907 30.455906V180.392679c0 21.297837 33.437604 42.595674 60.698835 42.595674s63.893511-21.297837 63.893511-42.595674v-147.59401A28.75208 28.75208 0 0 1 607.414309 1.490849h197.430949a72.625624 72.625624 0 0 1 76.033278 79.014975V414.455907h30.455907a29.178037 29.178037 0 0 1 27.261231 21.297837A30.242928 30.242928 0 0 1 926.455907 470.043261L570.78203 750.96173A90.728785 90.728785 0 0 1 514.768719 768.212978z"  horiz-adv-x="1027" />

    
    <glyph glyph-name="home-fill" unicode="&#58957;" d="M926.881864 470.043261L571.207987 750.96173a95.840266 95.840266 0 0 1-112.452579 0L100.312812 465.996672a24.492512 24.492512 0 0 1-9.15807-33.437604 26.622296 26.622296 0 0 1 27.261231-18.31614H149.084859v-332.885191A76.672213 76.672213 0 0 1 227.886855 1.490849h194.449251a28.75208 28.75208 0 0 1 30.455907 30.455906V180.392679c0 21.297837 33.437604 42.595674 60.698836 42.595674s63.893511-21.297837 63.89351-42.595674v-147.59401A28.75208 28.75208 0 0 1 607.840266 1.490849h197.430949a72.625624 72.625624 0 0 1 76.033278 79.014975V414.455907h30.242928a29.178037 29.178037 0 0 1 27.261231 21.297837 30.242928 30.242928 0 0 1-11.926788 34.289517z"  horiz-adv-x="1027" />

    
    <glyph glyph-name="like-bold" unicode="&#58958;" d="M596.339434 750.109817c24.066556 0 63.893511-21.297837 65.171381-100.52579-1.490849-13.204659-12.565724-63.893511-21.297837-106.489185l-1.703827-7.241265v-70.069883h183.374376a53.244592 53.244592 0 0 0 42.595674-17.251248 52.605657 52.605657 0 0 0 8.093178-44.725458L796.539101 44.086522a28.113145 28.113145 0 0 0-23.42762-18.955074H291.993344V418.928453A279.214642 279.214642 0 0 1 552.039933 694.309484v2.129784c0 43.873544 23.427621 53.457571 42.595674 53.670549m0 63.893511h-1.064892c-52.818636 0-106.489185-36.845258-106.489184-117.990017-2.768719-99.24792-79.227953-212.978369-212.97837-212.978369h-11.287853a35.780366 35.780366 0 0 1-35.567388-35.780366v-449.38436a35.993344 35.993344 0 0 1 35.780366-35.780366h510.296173a91.580699 91.580699 0 0 1 85.191348 69.643927l74.968386 359.720466a110.748752 110.748752 0 0 1-113.304493 138.861897h-118.84193s23.853577 101.803661 23.853578 118.202995c0 122.888519-76.459235 166.123128-129.064892 166.123128z m-476.006655-362.063228a30.668885 30.668885 0 0 1-31.946756-29.391015v-410.835275a30.668885 30.668885 0 0 1 31.946756-29.391015 30.668885 30.668885 0 0 1 31.946755 29.178037V421.697171a30.668885 30.668885 0 0 1-31.946755 29.178037z"  horiz-adv-x="1027" />

    
    <glyph glyph-name="like-lit" unicode="&#58959;" d="M599.108153 792.705491c37.271215 0 107.767055-30.242928 107.767055-144.825291 0-9.371048-12.139767-66.236273-23.214642-113.517471V508.379368h140.778702A89.663894 89.663894 0 0 0 915.806988 394.861897l-74.542429-359.720466a70.49584 70.49584 0 0 0-65.171381-52.818636H224.266223a14.695507 14.695507 0 0 0-14.482529 14.482529V446.402662a14.482529 14.482529 0 0 0 14.269551 14.482529h11.287853c122.462562 0 273.464226 104.572379 276.87188 234.276207 0 70.49584 45.790349 96.053245 85.191348 96.692179m0 21.297837H596.339434c-52.818636 0-106.489185-36.845258-106.489184-117.990016-2.768719-99.24792-121.823627-212.978369-255.574044-212.97837h-11.287853a35.780366 35.780366 0 0 1-35.567388-35.780366v-449.384359a35.993344 35.993344 0 0 1 35.780366-35.780366h552.891847a91.580699 91.580699 0 0 1 85.191348 69.643927L937.104825 390.602329a110.748752 110.748752 0 0 1-113.304492 138.861897h-119.480865s23.853577 101.803661 23.853577 118.202995c0 122.888519-76.459235 166.123128-129.064892 166.123128z m-489.850249-362.063228h-21.297837v-468.552412h21.297837v468.552412z"  horiz-adv-x="1027" />

    
    <glyph glyph-name="like-reg" unicode="&#58960;" d="M599.108153 771.407654c29.816972 0 86.25624-25.770383 86.469218-122.888519 0-11.71381-12.565724-65.384359-22.788685-109.257904l-1.064892-4.898502v-47.281198h162.076539A68.366057 68.366057 0 0 0 894.509151 399.121464l-74.116472-359.507487a49.198003 49.198003 0 0 0-44.299501-35.780366H252.379368V439.587354h4.472545c159.094842 0 273.677205 134.602329 276.871881 255.574044v1.064892c0 69.004992 49.410982 74.968386 63.89351 75.181364m0 42.595674h-1.064891c-52.818636 0-106.489185-36.845258-106.489185-117.990017-2.768719-99.24792-100.52579-212.978369-234.276206-212.978369h-11.287854a35.780366 35.780366 0 0 1-35.567388-35.780366v-449.38436a35.993344 35.993344 0 0 1 35.780366-35.780366h531.381032a91.580699 91.580699 0 0 1 85.191348 69.643927L937.104825 390.602329a110.748752 110.748752 0 0 1-113.304492 138.861897h-119.480865s23.853577 101.803661 23.853577 118.202995c0 122.888519-76.459235 166.123128-129.064892 166.123128z m-489.850249-362.063228a21.297837 21.297837 0 0 1-21.297837-21.297837v-425.956739a21.297837 21.297837 0 0 1 42.595674 0v425.956739a21.297837 21.297837 0 0 1-21.297837 21.297837z"  horiz-adv-x="1027" />

    
    <glyph glyph-name="link-bold" unicode="&#58961;" d="M146.773333 384a108.373333 108.373333 0 0 0 106.666667 108.8h159.786667a32 32 0 0 1 32 32 32 32 0 0 1-32 32h-159.146667a172.586667 172.586667 0 0 1 0-345.386667h160.213333a32 32 0 0 1 32 32 32 32 0 0 1-32 32h-160.213333A108.373333 108.373333 0 0 0 146.773333 384z m247.893334-32h234.666666A32 32 0 0 1 661.333333 384a32 32 0 0 1-32 32h-234.666666A32 32 0 0 1 362.666667 384a32 32 0 0 1 32-32z m497.066666 151.253333a165.333333 165.333333 0 0 1-117.76 53.546667h-166.4A32 32 0 0 1 576 524.8a32 32 0 0 1 32-32h157.866667a108.8 108.8 0 0 0 0-217.6h-158.293334a32 32 0 0 1-32-32 32 32 0 0 1 32-32h162.56a170.666667 170.666667 0 0 1 168.533334 168.746667 173.866667 173.866667 0 0 1-46.933334 123.306666z"  horiz-adv-x="1024" />

    
    <glyph glyph-name="link-lit" unicode="&#58962;" d="M106.666667 384c0 80 57.813333 145.28 128 145.28h213.333333V554.666667H234.666667c-82.346667 0-149.333333-76.373333-149.333334-170.666667s66.986667-170.666667 149.333334-170.666667h213.333333v25.6H234.666667c-70.613333 0-128 65.066667-128 145.066667z m256-11.946667h298.666666v21.333334H362.666667z m535.04 129.706667A137.386667 137.386667 0 0 1 795.733333 554.666667H576v-25.6h211.2c69.973333 0 128-65.066667 128-145.28s-57.386667-145.28-128-145.28H576V213.333333h215.893333c79.146667 0 145.066667 74.666667 146.986667 166.4a184.746667 184.746667 0 0 1-41.173333 122.24z"  horiz-adv-x="1024" />

    
    <glyph glyph-name="locked-bold" unicode="&#58963;" d="M472.533333 177.066667v-51.626667a39.466667 39.466667 0 0 1 78.72 0V177.066667a67.2 67.2 0 0 1 26.24 51.626666 65.706667 65.706667 0 0 1-131.2 0 67.2 67.2 0 0 1 26.24-51.626666zM512 229.546667h1.28l-1.28-1.493334-1.493333 1.706667z m288.853333 244.906666h-21.333333v71.253334a268.373333 268.373333 0 0 1-536.533333 0v-71.04h-20.053334A52.266667 52.266667 0 0 1 170.666667 422.826667v-413.866667A52.266667 52.266667 0 0 1 223.146667-42.666667h577.706666A52.266667 52.266667 0 0 1 853.333333 8.96v413.866667a52.266667 52.266667 0 0 1-52.48 51.626666zM307.2 545.706667a204.373333 204.373333 0 0 0 408.533333 0v-71.04H307.2zM789.333333 21.333333H234.666667V410.453333h554.666666z"  horiz-adv-x="1024" />

    
    <glyph glyph-name="link-reg" unicode="&#58964;" d="M128 384a122.88 122.88 0 0 0 118.4 126.506667H426.666667a21.333333 21.333333 0 0 1 21.333333 21.333333V533.333333a21.333333 21.333333 0 0 1-21.333333 21.333334h-181.546667A166.186667 166.186667 0 0 1 85.333333 384a166.186667 166.186667 0 0 1 159.786667-170.666667H426.666667a21.333333 21.333333 0 0 1 21.333333 21.333334 21.333333 21.333333 0 0 1-21.333333 21.333333h-181.546667A123.093333 123.093333 0 0 0 128 384z m256-21.333333h256a21.333333 21.333333 0 0 1 21.333333 21.333333 21.333333 21.333333 0 0 1-21.333333 21.333333H384a21.333333 21.333333 0 0 1-21.333333-21.333333 21.333333 21.333333 0 0 1 21.333333-22.4z m512 140.373333A151.04 151.04 0 0 1 785.706667 554.666667H597.333333a21.333333 21.333333 0 0 1-21.333333-21.333334v-2.346666a21.333333 21.333333 0 0 1 21.333333-21.333334h179.2A122.453333 122.453333 0 0 0 893.866667 384a122.24 122.24 0 0 0-117.12-128H597.333333a21.333333 21.333333 0 0 1-21.333333-21.333333v-2.346667a21.333333 21.333333 0 0 1 21.333333-21.333333h183.68c85.333333 0 155.52 75.306667 157.653334 167.68a178.986667 178.986667 0 0 1-42.666667 123.306666z"  horiz-adv-x="1024" />

    
    <glyph glyph-name="locked-fill" unicode="&#58965;" d="M800.853333 474.453333h-21.333333v71.253334a268.373333 268.373333 0 0 1-536.533333 0v-71.04h-21.333334A52.266667 52.266667 0 0 1 170.666667 422.826667v-413.866667A52.266667 52.266667 0 0 1 223.146667-42.666667h577.706666A52.266667 52.266667 0 0 1 853.333333 8.96v413.866667a52.266667 52.266667 0 0 1-52.48 51.626666zM564.48 177.066667v-51.626667a39.466667 39.466667 0 0 0-78.72 0V177.066667a67.2 67.2 0 0 0-26.24 51.626666 65.706667 65.706667 0 0 0 131.2 0 67.2 67.2 0 0 0-26.24-51.626666z m-256 297.386666v71.253334a204.373333 204.373333 0 0 0 408.533333 0v-71.04z"  horiz-adv-x="1024" />

    
    <glyph glyph-name="like-fill" unicode="&#58966;" d="M158.881864 446.615641v-449.597338a35.567388 35.567388 0 1 0-71.134776 0V446.615641a35.354409 35.354409 0 1 0 70.708819 0z m545.437604 83.061564h119.267886A110.748752 110.748752 0 0 0 937.104825 390.602329l-74.968386-359.720465a91.580699 91.580699 0 0 0-85.191347-69.643927H266.861897a35.993344 35.993344 0 0 0-35.780366 35.780366v449.384359a35.780366 35.780366 0 0 0 35.567387 35.780366h11.287854c133.963394 0 210.422629 114.582363 212.978369 212.97837 0 81.357737 53.883527 117.351082 106.489185 117.990016s130.342762-42.595674 130.342762-166.123128c0-16.399334-23.853577-118.202995-23.853577-118.202995z"  horiz-adv-x="1027" />

    
    <glyph glyph-name="locked-lit" unicode="&#58967;" d="M800.853333 474.453333h-42.666666v99.84a245.333333 245.333333 0 1 1-490.666667 0v-99.84h-42.666667A52.053333 52.053333 0 0 1 170.666667 423.253333v-409.6a52.053333 52.053333 0 0 1 52.48-51.2h577.706666a52.053333 52.053333 0 0 1 52.48 51.2v409.6a52.053333 52.053333 0 0 1-52.48 51.2z m-512 99.84a224 224 0 1 0 448 0v-99.84h-448zM832 13.653333a30.506667 30.506667 0 0 0-31.146667-29.866666H223.146667A30.506667 30.506667 0 0 0 192 13.653333v409.6a30.506667 30.506667 0 0 0 31.146667 29.866667h577.706666a30.506667 30.506667 0 0 0 31.146667-29.866667zM512 293.546667a64 64 0 0 1-65.706667-64 67.2 67.2 0 0 1 26.24-51.626667v-51.626667a39.466667 39.466667 0 0 1 78.72 0V177.066667a67.2 67.2 0 0 1 26.24 51.626666A64 64 0 0 1 512 293.546667z m25.813333-99.84l-7.893333-6.4v-61.866667a18.133333 18.133333 0 0 0-36.053333 0v61.866667l-7.893334 6.4a46.933333 46.933333 0 0 0-18.56 35.2 44.373333 44.373333 0 0 0 88.533334 0 46.933333 46.933333 0 0 0-18.133334-35.2z"  horiz-adv-x="1024" />

    
    <glyph glyph-name="menu-bold" unicode="&#58968;" d="M234.666667 597.333333v-64h554.666666v64z m0-256h554.666666v64H234.666667z m0-192h554.666666v64H234.666667z"  horiz-adv-x="1024" />

    
    <glyph glyph-name="locked-reg" unicode="&#58969;" d="M800.853333 474.453333H768v78.506667a256 256 0 1 1-512 0v-78.506667h-32.853333A52.266667 52.266667 0 0 1 170.666667 422.826667v-413.866667A52.266667 52.266667 0 0 1 223.146667-42.666667h577.706666A52.266667 52.266667 0 0 1 853.333333 8.96v413.866667a52.266667 52.266667 0 0 1-52.48 51.626666zM298.666667 552.96a213.333333 213.333333 0 1 0 426.666666 0v-78.506667H298.666667z m512-544a9.6 9.6 0 0 0-9.813334-8.96H223.146667a9.6 9.6 0 0 0-9.813334 8.96v413.866667a9.6 9.6 0 0 0 9.813334 8.96h577.706666a9.6 9.6 0 0 0 9.813334-8.96zM512 293.546667a64 64 0 0 1-65.706667-64 67.2 67.2 0 0 1 26.24-51.626667v-51.626667a39.466667 39.466667 0 0 1 78.72 0V177.066667a67.2 67.2 0 0 1 26.24 51.626666A64 64 0 0 1 512 293.546667z m0-65.706667l-1.493333 1.706667h2.773333z"  horiz-adv-x="1024" />

    
    <glyph glyph-name="menu-lit" unicode="&#58970;" d="M234.666667 597.333333v-21.333333h554.666666v21.333333z m0-213.333333h554.666666v21.333333H234.666667z m0-192h554.666666v21.333333H234.666667z"  horiz-adv-x="1024" />

    
    <glyph glyph-name="menu-reg" unicode="&#58971;" d="M234.666667 597.333333v-42.666666h554.666666v42.666666z m0-234.666666h554.666666v42.666666H234.666667z m0-192h554.666666v42.666666H234.666667z"  horiz-adv-x="1024" />

    
    <glyph glyph-name="message-fill" unicode="&#58972;" d="M773.537438 810.808652H251.314476a161.650582 161.650582 0 0 1-163.141431-163.141431V257.064892a161.650582 161.650582 0 0 1 163.141431-163.141431h255.574043L724.126456-36.845258a24.492512 24.492512 0 0 1 16.399334-3.194675 29.391015 29.391015 0 0 1 16.399335 3.194675 33.224626 33.224626 0 0 1 16.399334 26.19634l3.194676 101.164725a165.91015 165.91015 0 0 1 163.141431 163.141431V648.519135A166.549085 166.549085 0 0 1 773.537438 810.808652zM307.753744 371.008319a65.171381 65.171381 0 0 0 0 130.129784 67.514143 67.514143 0 0 0 65.171381-65.171381 65.384359 65.384359 0 0 0-65.171381-64.958403z m201.903494 0A65.171381 65.171381 0 1 0 575.041597 436.1797a65.384359 65.384359 0 0 0-65.597337-65.171381z m205.09817 0a65.171381 65.171381 0 1 0 0 130.129784 67.514143 67.514143 0 0 0 65.171381-65.171381 65.384359 65.384359 0 0 0-65.38436-64.958403z"  horiz-adv-x="1027" />

    
    <glyph glyph-name="message-bold" unicode="&#58973;" d="M770.55574 810.808652H248.332779A161.650582 161.650582 0 0 1 85.191348 646.815308v-391.667221a161.650582 161.650582 0 0 1 163.141431-163.141431h255.574043l218.728785-130.555741a24.492512 24.492512 0 0 1 16.399335-3.194675 29.391015 29.391015 0 0 1 16.399334 3.194675 33.224626 33.224626 0 0 1 16.399335 26.19634l3.194675 101.164725A165.91015 165.91015 0 0 1 937.104825 251.740433V646.815308A166.549085 166.549085 0 0 1 770.55574 810.808652zM873.211314 251.740433a101.803661 101.803661 0 0 0-99.24792-99.247921h-61.763727l-1.916805-61.763727-1.703827-46.642263-172.725458 103.081531-15.121464 8.945092H248.332779A98.183028 98.183028 0 0 0 149.084859 255.148087V646.815308A98.183028 98.183028 0 0 0 248.332779 746.915141h522.222961A102.442596 102.442596 0 0 0 873.211314 645.537438zM319.467554 500.073211a63.893511 63.893511 0 1 1 63.893511-63.893511 63.893511 63.893511 0 0 1-63.893511 63.893511z m191.680533 0a63.893511 63.893511 0 1 1 63.89351-63.893511 63.893511 63.893511 0 0 1-63.89351 63.254576z m191.680532 0a63.893511 63.893511 0 1 1 63.893511-63.893511 63.893511 63.893511 0 0 1-62.828619 63.254576z"  horiz-adv-x="1027" />

    
    <glyph glyph-name="message-lit" unicode="&#58974;" d="M771.407654 805.484193H249.184692A161.650582 161.650582 0 0 1 85.191348 642.342762v-391.8802A161.650582 161.650582 0 0 1 249.184692 86.682196h255.574043l217.663894-129.916805a24.492512 24.492512 0 0 1 16.399334-3.194676 29.391015 29.391015 0 0 1 16.399335 3.194676 33.224626 33.224626 0 0 1 16.399334 26.196339l3.194676 101.164726A165.91015 165.91015 0 0 1 937.104825 247.267887V642.342762a166.549085 166.549085 0 0 1-165.697171 163.141431zM915.806988 247.267887a143.760399 143.760399 0 0 0-141.843594-141.843594h-21.297837v-21.297837l-3.194675-101.803661a12.991681 12.991681 0 0 0-5.750416-7.667221 14.695507 14.695507 0 0 0-5.537438 0h-5.324459l-218.08985 130.981697-5.111481 2.342762H249.184692A140.352745 140.352745 0 0 0 106.489185 250.462562v391.8802a140.352745 140.352745 0 0 0 142.695507 141.843594h522.222962A145.890183 145.890183 0 0 0 915.806988 642.342762zM319.467554 474.08985a42.595674 42.595674 0 1 1 42.595674-42.595674 42.595674 42.595674 0 0 1-41.104825 42.595674z m193.171381 0a42.595674 42.595674 0 1 1 42.595674-42.595674 42.595674 42.595674 0 0 1-41.104825 41.956739z m190.615641 0a42.595674 42.595674 0 1 1 42.595674-42.595674 42.595674 42.595674 0 0 1-41.104826 41.956739z"  horiz-adv-x="1027" />

    
    <glyph glyph-name="message-reg" unicode="&#58975;" d="M773.537438 810.808652H251.314476a161.650582 161.650582 0 0 1-163.141431-163.993344v-391.667221a161.650582 161.650582 0 0 1 163.141431-163.141431h255.574043L724.126456-38.762063a24.492512 24.492512 0 0 1 16.399334-3.194676 29.391015 29.391015 0 0 1 16.399335 3.194676 33.224626 33.224626 0 0 1 16.399334 26.196339l3.194676 101.164726a165.91015 165.91015 0 0 1 163.141431 163.141431V646.815308a166.549085 166.549085 0 0 1-166.123128 163.993344z m123.953411-558.216306a123.740433 123.740433 0 0 0-120.545757-120.545757h-41.317804l-1.27787-41.317804-2.768719-83.274542L527.760399 129.27787l-10.009983 5.963395H251.314476a119.267887 119.267887 0 0 0-120.545757 120.545757V646.815308A119.267887 119.267887 0 0 0 251.314476 768.212978h522.222962a123.314476 123.314476 0 0 0 123.953411-121.39767z m-575.041598 226.821963a42.595674 42.595674 0 1 1 42.595674-42.595673 42.595674 42.595674 0 0 1-41.956739 41.956738z m193.171381 0a42.595674 42.595674 0 1 1 42.595674-42.595673 42.595674 42.595674 0 0 1-41.956739 41.317803z m190.615641 0a42.595674 42.595674 0 1 1 42.595674-42.595673 42.595674 42.595674 0 0 1-41.956739 41.317803z"  horiz-adv-x="1027" />

    
    <glyph glyph-name="minus-bold" unicode="&#58976;" d="M128 427.946667l768 0 0-64-768 0 0 64Z"  horiz-adv-x="1024" />

    
    <glyph glyph-name="minus-fill" unicode="&#58977;" d="M682.666667 777.813333C317.866667 919.68-23.68 578.133333 118.186667 213.333333A395.093333 395.093333 0 0 1 341.333333-9.813333C706.133333-151.68 1047.68 189.866667 905.813333 554.666667A395.093333 395.093333 0 0 1 682.666667 777.813333z m-202.026667-426.666666h-213.333333a32 32 0 0 0 0 64h490.666666a32 32 0 0 0 0-64h-277.333333z"  horiz-adv-x="1024" />

    
    <glyph glyph-name="minus-lit" unicode="&#58978;" d="M128 406.613333h768v-21.333333H128z"  horiz-adv-x="1024" />

    
    <glyph glyph-name="minus-reg" unicode="&#58979;" d="M128 405.333333l768 0 0-42.666666-768 0 0 42.666666Z"  horiz-adv-x="1024" />

    
    <glyph glyph-name="more-fill" unicode="&#58980;" d="M298.666667 448a64 64 0 1 1 64-64 64 64 0 0 1-64 64z m213.333333 0a64 64 0 1 1 64-64 64 64 0 0 1-64 64z m213.333333 0a64 64 0 1 1 64-64 64 64 0 0 1-64 64z"  horiz-adv-x="1024" />

    
    <glyph glyph-name="more-line" unicode="&#58981;" d="M298.666667 448a64 64 0 1 1 64-64 64 64 0 0 1-64 64z m0-106.666667a42.666667 42.666667 0 1 0 42.666666 42.666667 42.666667 42.666667 0 0 0-42.666666-42.666667z m213.333333 106.666667a64 64 0 1 1 64-64 64 64 0 0 1-64 64z m0-106.666667a42.666667 42.666667 0 1 0 42.666667 42.666667 42.666667 42.666667 0 0 0-42.666667-42.666667z m213.333333 106.666667a64 64 0 1 1 64-64 64 64 0 0 1-64 64z m0-106.666667a42.666667 42.666667 0 1 0 42.666667 42.666667 42.666667 42.666667 0 0 0-42.666667-42.666667z"  horiz-adv-x="1024" />

    
    <glyph glyph-name="nine-linecircle" unicode="&#58982;" d="M512 810.666667a426.666667 426.666667 0 1 1 426.666667-426.666667A426.666667 426.666667 0 0 1 512 810.666667z m0-789.333334a362.666667 362.666667 0 1 0 362.666667 362.666667 362.666667 362.666667 0 0 0-362.666667-362.666667z m-7.68 542.933334A108.8 108.8 0 0 1 394.88 448c0-73.6 42.666667-109.226667 99.626667-109.226667a96.64 96.64 0 0 1 71.253333 37.973334c-2.773333-87.253333-35.2-116.906667-74.24-116.906667a80.213333 80.213333 0 0 0-54.826667 24.32l-36.266666-41.173333a130.773333 130.773333 0 0 1 95.36-39.466667c69.12 0 133.333333 56.746667 133.333333 188.16 0 120.32-59.093333 172.586667-124.8 172.586667z m3.2-176c-30.08 0-49.28 19.2-49.28 59.946666s21.333333 64 46.933333 64c29.653333 0 53.546667-23.466667 59.733334-86.826666a69.546667 69.546667 0 0 0-57.386667-37.12z"  horiz-adv-x="1024" />

    
    <glyph glyph-name="nine-fillcircle" unicode="&#58983;" d="M512 810.666667a426.666667 426.666667 0 1 1 426.666667-426.666667A426.666667 426.666667 0 0 1 512 810.666667z m-16.213333-606.933334a130.773333 130.773333 0 0 0-95.36 39.466667l36.266666 41.173333A79.786667 79.786667 0 0 1 490.666667 260.053333c39.04 0 71.466667 29.653333 74.24 116.906667a96.64 96.64 0 0 0-71.253334-37.973333c-57.813333 0-99.626667 35.626667-99.626666 109.226666a108.8 108.8 0 0 0 109.44 116.053334c65.706667 0 124.8-51.626667 124.8-172.373334 0.853333-131.413333-63.36-188.16-132.48-188.16zM505.173333 512c-25.813333 0-46.933333-21.333333-46.933333-64s19.2-59.946667 49.28-59.946667a69.546667 69.546667 0 0 1 57.386667 37.12c-6.186667 63.573333-30.08 86.826667-59.733334 86.826667z"  horiz-adv-x="1024" />

    
    <glyph glyph-name="one-fillcircle" unicode="&#58984;" d="M512 810.666667a426.666667 426.666667 0 1 1 426.666667-426.666667A426.666667 426.666667 0 0 1 512 810.666667z m104.533333-600.32h-209.066666v55.893333h74.666666V485.76h-64v42.666667a226.56 226.56 0 0 1 80.853334 29.013333h51.2v-291.2h66.346666z"  horiz-adv-x="1024" />

    
    <glyph glyph-name="one-linecircle" unicode="&#58985;" d="M551.253333 557.653333h-51.2a226.56 226.56 0 0 0-80.853333-29.013333v-42.666667h64v-219.733333H407.466667v-55.893333h209.066666v55.893333h-65.28zM512 810.666667a426.666667 426.666667 0 1 1 426.666667-426.666667A426.666667 426.666667 0 0 1 512 810.666667z m0-789.333334a362.666667 362.666667 0 1 0 362.666667 362.666667 362.666667 362.666667 0 0 0-362.666667-362.666667z"  horiz-adv-x="1024" />

    
    <glyph glyph-name="pic-fill" unicode="&#58986;" d="M858.666667 724.266667H165.333333A79.36 79.36 0 0 1 85.333333 645.333333v-525.013333a79.36 79.36 0 0 1 80-78.72h693.333334A79.36 79.36 0 0 1 938.666667 120.32V645.333333a79.36 79.36 0 0 1-80 78.933334z m13.226666-523.52L704 420.48s-9.813333 17.706667-43.946667 17.706667c-38.826667 0-50.346667-17.28-50.346666-17.28l-145.92-222.72a31.573333 31.573333 0 0 0-27.52-14.933334 37.333333 37.333333 0 0 0-30.293334 14.933334l-77.013333 86.826666a67.413333 67.413333 0 0 1-45.44 25.813334 71.466667 71.466667 0 0 1-46.72-28.586667l-85.333333-103.893333V631.253333a26.453333 26.453333 0 0 0 26.666666 26.24h667.093334a26.453333 26.453333 0 0 0 26.666666-26.24v-430.506666zM471.893333 487.893333a94.506667 94.506667 0 1 0-94.506666 93.013334 93.653333 93.653333 0 0 0 94.506666-93.013334z"  horiz-adv-x="1024" />

    
    <glyph glyph-name="pic-bold" unicode="&#58987;" d="M377.386667 580.906667a93.013333 93.013333 0 1 1 94.506666-93.013334 93.653333 93.653333 0 0 1-94.506666 93.013334zM858.666667 725.333333H165.333333A79.36 79.36 0 0 1 85.333333 646.613333v-526.72a32.213333 32.213333 0 0 1 1.28-11.733333A79.573333 79.573333 0 0 1 165.333333 42.666667h693.333334A79.36 79.36 0 0 1 938.666667 121.386667V646.613333A79.36 79.36 0 0 1 858.666667 725.333333z m0-618.666666H165.333333a16.64 16.64 0 0 0-11.52 4.48l108.373334 130.56c4.48 6.186667 15.786667 15.573333 21.333333 15.573333a36.266667 36.266667 0 0 0 20.053333-13.226667l1.493334-1.706666 75.946666-85.333334a69.546667 69.546667 0 0 1 55.253334-26.88A64 64 0 0 1 490.666667 160l144.426666 219.52A46.293333 46.293333 0 0 0 661.333333 384a29.44 29.44 0 0 0 17.493334-3.84l188.8-262.4a32.213333 32.213333 0 0 1 4.266666-4.693333 16 16 0 0 0-13.226666-6.4z m16 110.72l-143.573334 199.68A79.146667 79.146667 0 0 1 661.333333 448c-53.12 0-73.386667-26.026667-77.226666-31.573333l-147.2-222.08-1.493334-2.346667c0 1.493333 1.066667 1.92 0 1.92h-3.413333c0.426667 0 0 1.493333-2.773333 3.626667l-76.586667 85.333333A97.28 97.28 0 0 1 282.666667 320a100.693333 100.693333 0 0 1-71.466667-40.106667L149.333333 205.866667V646.613333a15.36 15.36 0 0 0 16 14.72h693.333334a15.36 15.36 0 0 0 16-14.72z"  horiz-adv-x="1024" />

    
    <glyph glyph-name="pic-reg" unicode="&#58988;" d="M377.386667 602.24a114.346667 114.346667 0 1 1 115.84-114.346667 115.2 115.2 0 0 1-115.84 114.346667z m0-186.026667a71.68 71.68 0 1 0 73.173333 71.68 72.533333 72.533333 0 0 0-73.173333-71.68zM858.666667 725.333333H165.333333A79.36 79.36 0 0 1 85.333333 646.613333v-525.226666A79.36 79.36 0 0 1 165.333333 42.666667h693.333334A79.36 79.36 0 0 1 938.666667 121.386667V646.613333A79.36 79.36 0 0 1 858.666667 725.333333z m0-640H165.333333a37.76 37.76 0 0 0-22.826666 7.68l111.146666 133.76c4.693333 6.186667 18.56 19.84 29.653334 19.84a47.36 47.36 0 0 0 29.44-18.56l76.373333-85.333333a58.666667 58.666667 0 0 1 46.933333-22.826667 52.48 52.48 0 0 1 45.44 24.533334l145.706667 220.8a46.506667 46.506667 0 0 0 34.133333 8.96 36.266667 36.266667 0 0 0 25.173334-6.826667l1.28-2.133333 192-271.146667 1.92-2.133333a37.76 37.76 0 0 0-23.04-6.613334zM896 143.573333l-173.653333 246.186667A69.333333 69.333333 0 0 1 661.333333 416.853333c-47.786667 0-65.066667-21.333333-68.266666-26.88l-147.2-223.786666a10.453333 10.453333 0 0 0-9.173334-4.266667 16.426667 16.426667 0 0 0-12.373333 5.333333l-2.56 3.413334-76.16 85.333333a87.04 87.04 0 0 1-62.293333 34.133333 89.813333 89.813333 0 0 1-64-36.266666L128 142.293333V646.613333A36.693333 36.693333 0 0 0 165.333333 682.666667h693.333334A36.906667 36.906667 0 0 0 896 646.613333z"  horiz-adv-x="1024" />

    
    <glyph glyph-name="pie-bold" unicode="&#58989;" d="M898.133333 569.173333h1.493334l-32 55.466667h-1.066667a426.666667 426.666667 0 0 1-320 184.746667V810.666667h-64v-1.706667A426.666667 426.666667 0 1 1 898.133333 569.173333z m-87.466666 23.466667l-264.533334-152.746667V745.386667A362.666667 362.666667 0 0 0 810.666667 592.64zM513.92 21.333333a362.666667 362.666667 0 0 0-32 723.626667v-416l360.533333 208.213333A362.666667 362.666667 0 0 0 513.92 21.333333z"  horiz-adv-x="1024" />

    
    <glyph glyph-name="pie-fill" unicode="&#58990;" d="M894.08 573.226667A426.666667 426.666667 0 1 0 512 810.666667v-457.173334zM573.44 810.666667v-346.24l289.493333 166.613333A430.72 430.72 0 0 1 573.44 810.666667z"  horiz-adv-x="1024" />

    
    <glyph glyph-name="pie-reg" unicode="&#58991;" d="M890.026667 578.773333l-21.333334 36.906667A426.666667 426.666667 0 0 1 531.84 810.666667h-42.666667a426.666667 426.666667 0 1 1 400.853334-231.893334zM832 594.346667l-300.16-173.013334V768A384 384 0 0 0 832 594.346667zM510.506667 0a384 384 0 0 0-21.333334 768v-420.48l362.666667 209.92a384 384 0 0 0-341.333333-557.44z"  horiz-adv-x="1024" />

    
    <glyph glyph-name="pie-lit" unicode="&#58992;" d="M886.826667 588.586667l-10.666667 18.56A426.666667 426.666667 0 0 1 522.666667 810.666667h-21.333334a426.666667 426.666667 0 1 1 385.493334-222.08z m-29.653334 7.466666L522.666667 402.986667V789.333333a405.333333 405.333333 0 0 0 334.506666-193.28zM512-21.333333a405.333333 405.333333 0 0 0-10.666667 810.666666v-423.466666l366.933334 211.84A405.333333 405.333333 0 0 0 512-21.333333z"  horiz-adv-x="1024" />

    
    <glyph glyph-name="pic-lit" unicode="&#58993;" d="M377.386667 591.573333a103.68 103.68 0 1 1 105.173333-103.68 104.533333 104.533333 0 0 1-105.173333 103.68z m0-186.026666a82.346667 82.346667 0 1 0 83.84 82.346666A83.2 83.2 0 0 0 377.386667 405.333333zM858.666667 725.333333H165.333333A79.36 79.36 0 0 1 85.333333 646.613333v-525.226666A79.36 79.36 0 0 1 165.333333 42.666667h693.333334A79.36 79.36 0 0 1 938.666667 121.386667V646.613333A79.36 79.36 0 0 1 858.666667 725.333333z m0-661.333333H165.333333a58.88 58.88 0 0 0-44.8 21.333333 10.24 10.24 0 0 1 2.133334 1.706667l122.453333 146.773333s18.56 24.106667 38.186667 24.106667A57.386667 57.386667 0 0 0 320 234.666667l76.16-85.333334a48 48 0 0 1 39.253333-19.626666 42.666667 42.666667 0 0 1 37.12 19.626666L618.666667 372.053333s10.026667 12.8 42.666666 12.8c26.666667 0 34.346667-11.946667 35.2-13.44l204.8-281.6 1.28-2.133333 1.706667-2.346667a58.88 58.88 0 0 0-45.653333-21.333333zM917.333333 121.386667a55.68 55.68 0 0 0-2.346666-14.933334l-201.173334 277.333334A56.96 56.96 0 0 1 661.333333 405.333333c-42.666667 0-57.813333-19.626667-59.306666-21.333333L454.4 160.64a21.333333 21.333333 0 0 0-18.133333-9.386667 27.306667 27.306667 0 0 0-21.333334 11.306667l-76.586666 85.333333a77.653333 77.653333 0 0 1-53.973334 29.866667 81.066667 81.066667 0 0 1-55.04-32.426667l-119.68-141.226666a55.68 55.68 0 0 0-2.986666 17.28V646.613333A58.026667 58.026667 0 0 0 165.333333 704h693.333334A58.24 58.24 0 0 0 917.333333 646.613333z"  horiz-adv-x="1024" />

    
    <glyph glyph-name="plus-bold" unicode="&#58994;" d="M862.08 416h-320v320a32 32 0 0 1-64 0v-320h-320a32 32 0 1 1 0-64h320v-320a32 32 0 0 1 64 0v320h320a32 32 0 0 1 0 64z"  horiz-adv-x="1024" />

    
    <glyph glyph-name="plus-lit" unicode="&#58995;" d="M896 394.666667H522.666667V768h-21.333334v-373.333333H128v-21.333334h373.333333V0h21.333334V373.333333H896v21.333334z"  horiz-adv-x="1024" />

    
    <glyph glyph-name="plus-reg" unicode="&#58996;" d="M874.666667 405.333333H533.333333V746.666667a21.333333 21.333333 0 0 1-42.666666 0v-341.333334H149.333333a21.333333 21.333333 0 0 1 0-42.666666h341.333334v-341.333334a21.333333 21.333333 0 1 1 42.666666 0V362.666667h341.333334a21.333333 21.333333 0 0 1 0 42.666666z"  horiz-adv-x="1024" />

    
    <glyph glyph-name="pricetag-bold" unicode="&#58997;" d="M464 768H128v-336L560 0 896 336zM192 458.453333V704h245.333333l368.213334-368-245.546667-245.546667zM298.666667 640a42.666667 42.666667 0 1 1 42.666666-42.666667 42.666667 42.666667 0 0 1-42.666666 42.666667z"  horiz-adv-x="1024" />

    
    <glyph glyph-name="plus-fill" unicode="&#58998;" d="M682.666667 777.813333C317.866667 919.68-23.68 578.133333 118.186667 213.333333A395.093333 395.093333 0 0 1 341.333333-9.813333C706.133333-151.68 1047.68 189.866667 905.813333 554.666667A395.093333 395.093333 0 0 1 682.666667 777.813333z m75.306666-426.666666h-213.333333v-213.333334a32 32 0 0 0-64 0v213.333334h-213.333333a32 32 0 1 0 0 64h213.333333v213.333333a32 32 0 1 0 64 0v-213.333333h213.333333a32 32 0 0 0 0-64z"  horiz-adv-x="1024" />

    
    <glyph glyph-name="pricetag-fill" unicode="&#58999;" d="M464 768H128v-336L560 0 896 336zM277.333333 581.333333a42.666667 42.666667 0 1 0 42.666667 42.666667 42.666667 42.666667 0 0 0-42.666667-42.666667z"  horiz-adv-x="1024" />

    
    <glyph glyph-name="pricetag-lit" unicode="&#59000;" d="M464 768H128v-336L560 0 896 336zM149.333333 440.746667V746.666667h305.706667l410.88-410.666667-305.92-305.92z m149.333334 209.92a53.333333 53.333333 0 1 1 53.333333-53.333334 53.333333 53.333333 0 0 1-53.333333 53.333334z m0-85.333334a32 32 0 1 0 32 32 32 32 0 0 0-32-32z"  horiz-adv-x="1024" />

    
    <glyph glyph-name="pricetag-reg" unicode="&#59001;" d="M464 768H128v-336L560 0 896 336zM170.666667 449.706667V725.333333h275.626666l389.333334-389.333333-275.626667-275.626667zM298.666667 640a42.666667 42.666667 0 1 1 42.666666-42.666667 42.666667 42.666667 0 0 1-42.666666 42.666667z"  horiz-adv-x="1024" />

    
    <glyph glyph-name="refresh-bold" unicode="&#59002;" d="M512 704A320 320 0 0 1 192 384a315.52 315.52 0 0 1 22.4-117.12l-44.8 15.786667a32 32 0 1 1-21.333333-60.373334l113.066666-39.893333a31.573333 31.573333 0 0 1 10.666667-1.92 32 32 0 0 1 28.373333 17.28l53.546667 103.893333a32 32 0 1 1-56.96 29.226667l-26.666667-51.413333a259.626667 259.626667 0 0 0-21.333333 104.533333A263.466667 263.466667 0 1 0 512 120.533333a260.906667 260.906667 0 0 0-130.56 35.2 27.733333 27.733333 0 0 1-12.586667 3.2A28.373333 28.373333 0 0 1 341.333333 130.346667a27.946667 27.946667 0 0 1 13.226667-23.68A320 320 0 1 1 512 704z"  horiz-adv-x="1024" />

    
    <glyph glyph-name="refresh-lit" unicode="&#59003;" d="M512 704a320 320 0 0 1-280.96-472.96l-89.386667 31.573333a10.666667 10.666667 0 0 1-7.04-20.053333l113.066667-39.893333a10.453333 10.453333 0 0 1 3.626667 0 10.666667 10.666667 0 0 1 9.386666 5.76l53.546667 104.106666a10.666667 10.666667 0 0 1-18.986667 9.813334L250.666667 234.666667a298.666667 298.666667 0 0 0-39.893334 149.333333 302.293333 302.293333 0 1 0 119.04-239.36 162.56 162.56 0 0 0-11.093333-15.36A320 320 0 1 1 512 704z"  horiz-adv-x="1024" />

    
    <glyph glyph-name="refresh-reg" unicode="&#59004;" d="M512 704A320 320 0 0 1 192 384a316.373333 316.373333 0 0 1 30.506667-135.466667l-68.693334 24.106667a21.333333 21.333333 0 0 1-14.293333-40.32l113.066667-40.32a21.333333 21.333333 0 0 1 3.413333 0h2.773333a21.333333 21.333333 0 0 1 18.986667 11.52l5.333333 10.453333h2.56l-1.28 1.706667 46.72 90.666667a21.333333 21.333333 0 0 1-37.973333 19.626666l-34.773333-67.626666A278.613333 278.613333 0 0 0 229.546667 384 282.453333 282.453333 0 1 0 512 101.546667 275.84 275.84 0 0 0 355.413333 149.333333a18.346667 18.346667 0 0 1-9.813333 3.2 18.773333 18.773333 0 0 1-18.773333-18.773333 18.56 18.56 0 0 1 8.746666-15.36A320 320 0 1 1 512 704z"  horiz-adv-x="1024" />

    
    <glyph glyph-name="remind-bold" unicode="&#59005;" d="M865.493333 137.386667l-61.866666 123.946666v192A304.853333 304.853333 0 0 1 603.946667 736a98.346667 98.346667 0 0 1-192-6.826667 295.893333 295.893333 0 0 1-199.466667-275.2v-192L149.333333 137.386667a30.72 30.72 0 0 1 0-34.346667 35.84 35.84 0 0 1 27.52-13.866667h661.333334a35.84 35.84 0 0 1 27.52 13.866667 30.72 30.72 0 0 1-0.213334 34.346667z m-636.16 15.786666l39.68 79.36 6.826667 13.44v208a230.826667 230.826667 0 0 0 156.8 214.826667L469.333333 682.666667l5.546667 38.4a32.64 32.64 0 0 0 33.066667 27.733333 34.346667 34.346667 0 0 0 33.28-21.333333l6.186666-37.333334 35.626667-12.586666a241.706667 241.706667 0 0 0 156.8-221.866667v-207.786667l6.826667-13.44 39.68-79.36z m280.533334-194.773333a94.08 94.08 0 0 1 96.426666 96.426667h-192a94.08 94.08 0 0 1 95.573334-96.426667z"  horiz-adv-x="1024" />

    
    <glyph glyph-name="remind-fill" unicode="&#59006;" d="M872.746667 137.386667L810.666667 261.333333v192A304.853333 304.853333 0 0 1 611.2 736a98.346667 98.346667 0 0 1-192-6.826667 295.893333 295.893333 0 0 1-199.466667-275.2v-192l-61.866666-123.946666a30.72 30.72 0 0 1 0-34.346667 35.84 35.84 0 0 1 27.52-13.866667h661.333333a35.84 35.84 0 0 1 27.52 13.866667 30.72 30.72 0 0 1-1.493333 33.706667zM420.693333 54.826667a96.426667 96.426667 0 0 1 192 0z"  horiz-adv-x="1024" />

    
    <glyph glyph-name="remind-lit" unicode="&#59007;" d="M869.76 137.386667l-61.866667 123.946666v192A304.853333 304.853333 0 0 1 608.426667 736a98.346667 98.346667 0 0 1-192-6.826667 295.893333 295.893333 0 0 1-199.466667-275.2v-192l-61.866667-123.946666a30.72 30.72 0 0 1 0-34.346667 35.84 35.84 0 0 1 27.52-13.866667h661.333334a35.84 35.84 0 0 1 27.52 13.866667 30.72 30.72 0 0 1-1.706667 33.706667z m-27.52-26.88h-661.333333c-3.84 0-5.546667 0-9.813334 4.906666a19.626667 19.626667 0 0 0-0.426666 7.893334v1.493333l2.56 3.2L234.666667 251.733333l2.346666 4.48v197.76a273.493333 273.493333 0 0 0 185.386667 256l12.16 4.266667 1.92 12.8a74.88 74.88 0 0 0 75.306667 64 76.373333 76.373333 0 0 0 75.306666-57.813333l2.133334-12.373334 11.946666-4.266666a281.813333 281.813333 0 0 0 185.386667-261.973334V256l2.346667-4.48 61.866666-123.52a22.613333 22.613333 0 0 0 2.986667-10.88c-5.546667-5.546667-7.253333-6.613333-11.52-6.613333zM514.133333-41.6a94.08 94.08 0 0 1 96.426667 96.426667h-192a94.08 94.08 0 0 1 95.573333-96.426667z m0 21.333333a72.106667 72.106667 0 0 0-72.32 53.76h144.64a72.106667 72.106667 0 0 0-72.32-53.76z"  horiz-adv-x="1024" />

    
    <glyph glyph-name="search-bold" unicode="&#59008;" d="M930.715474 13.417637l-177.198003 177.198004a378.462562 378.462562 0 1 1-45.151414-45.151415l177.198003-177.198003a31.946755 31.946755 0 0 1 45.151414 45.151414z m-465.996672 106.489185a313.078203 313.078203 0 1 0 313.078203 313.078203 313.50416 313.50416 0 0 0-313.078203-313.291181z"  horiz-adv-x="1027" />

    
    <glyph glyph-name="remind-reg" unicode="&#59009;" d="M869.76 137.386667l-61.866667 123.946666v192A304.853333 304.853333 0 0 1 608.426667 736a98.346667 98.346667 0 0 1-192-6.826667 295.893333 295.893333 0 0 1-199.466667-275.2v-192l-61.866667-123.946666a30.72 30.72 0 0 1 0-34.346667 35.84 35.84 0 0 1 27.52-13.866667h661.333334a35.84 35.84 0 0 1 27.52 13.866667 30.72 30.72 0 0 1-1.706667 33.706667z m-670.72-5.546667l55.253333 110.293333 4.48 8.96v202.666667a252.16 252.16 0 0 0 170.666667 234.666667l24.32 8.533333 3.626667 25.6A53.76 53.76 0 0 0 512 769.066667a55.04 55.04 0 0 0 54.186667-40.106667l4.266666-24.96 23.68-8.32a263.68 263.68 0 0 0 170.666667-241.92v-202.666667l4.48-8.96 55.253333-110.293333z m315.093333-173.44a94.08 94.08 0 0 1 96.426667 96.426667h-192a94.08 94.08 0 0 1 95.573333-96.426667z"  horiz-adv-x="1024" />

    
    <glyph glyph-name="search-lit" unicode="&#59010;" d="M455.986689 810.808652a376.971714 376.971714 0 1 1 263.454243-647.241264L924.965058-41.104825l15.121464 15.121464-205.950083 205.950083A376.545757 376.545757 0 0 1 455.986689 810.808652z m0-732.858569a355.673877 355.673877 0 1 0 355.673877 355.673877 356.099834 356.099834 0 0 0-355.673877-355.673877z"  horiz-adv-x="1027" />

    
    <glyph glyph-name="search-reg" unicode="&#59011;" d="M933.91015-4.685524l-185.078203 185.078203a21.297837 21.297837 0 0 1-2.981697 1.916805 378.249584 378.249584 0 1 1-29.178037-29.178036 20.019967 20.019967 0 0 1 1.916805-2.768719l185.078203-185.078203a21.297837 21.297837 0 0 1 30.02995 30.02995z m-468.552413 103.294509a334.37604 334.37604 0 1 0 334.37604 334.37604 334.801997 334.801997 0 0 0-335.014975-334.589018z"  horiz-adv-x="1027" />

    
    <glyph glyph-name="service-bold" unicode="&#59012;" d="M844.373333 193.706667a385.28 385.28 0 0 0-227.626666-177.92A64 64 0 0 0 576 0h-128a64 64 0 1 0 0 128h128a64 64 0 0 0 58.666667-38.613333A322.346667 322.346667 0 0 1 766.08 192 64 64 0 0 0 704 256v192a64 64 0 0 0 64 64h37.12a320 320 0 0 1-586.453333 0H256a64 64 0 0 0 64-64v-192a64 64 0 0 0-64-64H192a64 64 0 0 0-64 64v192a64 64 0 0 0 14.72 40.32 384 384 0 0 0 738.56 0A64 64 0 0 0 896 448v-192a64 64 0 0 0-51.626667-62.293333zM192 256h64v192H192z m640 192h-64v-192h64z"  horiz-adv-x="1024" />

    
    <glyph glyph-name="service-fill" unicode="&#59013;" d="M844.8 193.28a385.28 385.28 0 0 0-227.626667-177.92A64 64 0 0 0 576 0h-128a64 64 0 1 0 0 128h128a64 64 0 0 0 58.666667-38.613333A322.346667 322.346667 0 0 1 766.506667 192 64 64 0 0 0 704 256v192a64 64 0 0 0 64 64h37.12a320 320 0 0 1-586.453333 0H256a64 64 0 0 0 64-64v-192a64 64 0 0 0-64-64H192a64 64 0 0 0-64 64v192a64 64 0 0 0 14.72 40.32 384 384 0 0 0 738.56 0A64 64 0 0 0 896 448v-192a64 64 0 0 0-51.2-62.72z"  horiz-adv-x="1024" />

    
    <glyph glyph-name="service-lit" unicode="&#59014;" d="M444.16 0a45.226667 45.226667 0 0 0-44.586667 51.84 47.573333 47.573333 0 0 0 48.426667 38.4h119.466667a52.48 52.48 0 0 0 54.186666-27.946667l8.533334-19.626666 21.333333 8.533333a364.586667 364.586667 0 0 1 149.333333 115.84l26.88 35.2h-42.666666a46.506667 46.506667 0 0 0-45.226667 46.293333v202.026667a46.293333 46.293333 0 0 0 46.293333 46.293333h70.826667a1.28 1.28 0 0 1 1.066667 1.706667l-9.813334 22.4a368.853333 368.853333 0 0 1-243.626666 213.333333 362.666667 362.666667 0 0 1-423.68-205.653333l-13.866667-31.573333h72.746667a46.506667 46.506667 0 0 0 46.506666-46.506667v-200.96a46.293333 46.293333 0 0 0-46.293333-46.293333H174.293333A46.293333 46.293333 0 0 0 128 249.6v202.24a44.586667 44.586667 0 0 0 10.453333 28.373333l2.986667 3.626667 1.28 4.48a384 384 0 0 0 738.56 0l1.28-4.48 2.986667-3.626667a44.586667 44.586667 0 0 0 10.453333-28.373333v-202.24a46.506667 46.506667 0 0 0-37.12-45.44l-8.96-1.706667-5.12-8.746666a384 384 0 0 0-227.626667-177.92l-4.693333-1.28-3.626667-3.2a44.8 44.8 0 0 0-29.013333-10.88z m317.653333 225.92h110.506667a1.28 1.28 0 0 1 1.28 1.28V473.173333a1.28 1.28 0 0 1-1.28 1.28h-110.506667a1.28 1.28 0 0 1-1.28-1.28v-246.186666a1.28 1.28 0 0 1 1.28-1.066667z m-609.92 0h110.506667a1.28 1.28 0 0 1 1.28 1.28V473.173333a1.28 1.28 0 0 1-1.28 1.28H151.68a1.28 1.28 0 0 1-1.28-1.28v-246.186666a1.28 1.28 0 0 1 1.28-1.066667z"  horiz-adv-x="1024" />

    
    <glyph glyph-name="service-reg" unicode="&#59015;" d="M446.08 0a54.826667 54.826667 0 1 0 0 109.653333h131.626667a54.826667 54.826667 0 0 0 50.346666-33.066666l4.266667-10.026667 10.026667 4.266667a343.04 343.04 0 0 1 140.16 109.013333l13.013333 17.066667h-21.333333a54.4 54.4 0 0 0-53.546667 54.613333v198.4a54.826667 54.826667 0 0 0 54.826667 54.826667h55.04l-6.826667 15.36a340.053333 340.053333 0 0 1-623.36 0l-6.826667-15.36h55.04a54.826667 54.826667 0 0 0 54.826667-54.826667v-197.546667a54.826667 54.826667 0 0 0-54.826667-54.826666H182.826667A54.826667 54.826667 0 0 0 128 252.373333v197.546667a53.973333 53.973333 0 0 0 12.586667 34.56l1.493333 1.706667v2.133333a384 384 0 0 0 738.56 0v-2.133333l1.493333-1.706667a53.973333 53.973333 0 0 0 13.866667-34.56v-197.546667a55.04 55.04 0 0 0-43.946667-53.76h-4.906666l-2.56-4.266666a384 384 0 0 0-227.626667-177.92h-2.346667l-1.706666-1.493334a54.186667 54.186667 0 0 0-35.2-13.226666z m318.293333 241.28h87.893334V460.8h-87.893334z m-592.426666 0h87.893333V460.8H171.946667z"  horiz-adv-x="1024" />

    
    <glyph glyph-name="seven-fillcircle" unicode="&#59016;" d="M512 810.666667a426.666667 426.666667 0 1 1 426.666667-426.666667A426.666667 426.666667 0 0 1 512 810.666667z m115.413333-294.826667c-80.64-98.56-91.52-169.386667-97.066666-305.493333h-69.973334c6.186667 120.533333 26.24 197.546667 92.373334 289.706666h-156.16v57.6h230.826666z"  horiz-adv-x="1024" />

    
    <glyph glyph-name="seven-linecircle" unicode="&#59017;" d="M396.586667 500.053333h156.16c-66.133333-92.16-85.333333-169.173333-92.373334-289.706666h69.973334c5.546667 136.106667 16.426667 206.933333 97.066666 305.493333v42.666667H396.586667zM512 810.666667a426.666667 426.666667 0 1 1 426.666667-426.666667A426.666667 426.666667 0 0 1 512 810.666667z m0-789.333334a362.666667 362.666667 0 1 0 362.666667 362.666667 362.666667 362.666667 0 0 0-362.666667-362.666667z"  horiz-adv-x="1024" />

    
    <glyph glyph-name="share-bold" unicode="&#59018;" d="M736 219.306667a109.44 109.44 0 0 1-74.666667-29.866667L400.213333 352a99.2 99.2 0 0 1 0 60.16L663.253333 576a109.653333 109.653333 0 1 1-38.186666 82.56 109.013333 109.013333 0 0 1 4.053333-28.373333l-261.76-163.626667a110.08 110.08 0 1 1-2.773333-167.893333l264.533333-164.693334a109.866667 109.866667 0 1 1 106.666667 85.333334zM735.146667 704a46.08 46.08 0 1 0-46.08-46.08A46.08 46.08 0 0 0 735.146667 704zM295.466667 337.706667A46.08 46.08 0 1 0 341.333333 384a46.08 46.08 0 0 0-45.866666-46.293333zM736 64a46.08 46.08 0 1 0 46.08 46.08A46.08 46.08 0 0 0 736 64z"  horiz-adv-x="1024" />

    
    <glyph glyph-name="share-fill" unicode="&#59019;" d="M734.08 219.093333a109.866667 109.866667 0 0 1-78.293333-33.066666l-265.6 147.413333a106.666667 106.666667 0 0 1 12.586666 50.56 115.2 115.2 0 0 1-4.906666 30.933333L659.626667 576a109.44 109.44 0 1 1-36.693334 81.493333 110.506667 110.506667 0 0 1 6.4-35.626666l-259.413333-160a110.08 110.08 0 1 1-17.493333-170.666667l275.84-153.173333a109.653333 109.653333 0 1 1 106.666666 80.64z"  horiz-adv-x="1024" />

    
    <glyph glyph-name="share-lit" unicode="&#59020;" d="M731.946667 219.306667a109.653333 109.653333 0 0 1-89.173334-46.08l-254.933333 158.933333a106.666667 106.666667 0 0 1 1.706667 100.48l254.72 158.933333a112.213333 112.213333 0 1 1-11.306667 18.133334l-254.72-159.146667a110.08 110.08 0 1 1-2.133333-136.32l256-159.573333a109.866667 109.866667 0 1 1 99.84 64zM731.093333 746.666667a88.746667 88.746667 0 1 0-88.746666-88.746667A88.746667 88.746667 0 0 0 731.093333 746.666667zM291.413333 295.04A88.746667 88.746667 0 1 0 379.946667 384a88.746667 88.746667 0 0 0-88.533334-88.96zM731.946667 21.333333a88.746667 88.746667 0 1 0 88.746666 88.746667A88.746667 88.746667 0 0 0 731.946667 21.333333z"  horiz-adv-x="1024" />

    
    <glyph glyph-name="share-reg" unicode="&#59021;" d="M730.88 219.306667a109.226667 109.226667 0 0 1-82.346667-37.76l-256 160a106.666667 106.666667 0 0 1 0 81.28l257.066667 160.64A112.213333 112.213333 0 1 1 627.2 618.666667l-257.066667-159.786667a109.866667 109.866667 0 1 1-2.133333-152.96l259.2-161.28a108.8 108.8 0 0 1-6.4-35.2 110.08 110.08 0 1 1 110.08 110.08zM729.813333 725.333333a67.413333 67.413333 0 1 0-67.413333-67.413333A67.413333 67.413333 0 0 0 729.813333 725.333333zM290.133333 316.373333A67.413333 67.413333 0 1 0 357.546667 384a67.413333 67.413333 0 0 0-67.413334-67.626667zM730.88 42.666667a67.413333 67.413333 0 1 0 67.413333 67.413333A67.413333 67.413333 0 0 0 730.88 42.666667z"  horiz-adv-x="1024" />

    
    <glyph glyph-name="shop-bold" unicode="&#59022;" d="M763.733333 113.066667c-2.133333-12.8-10.666667-21.333333-23.466666-25.6H281.6c-12.8 4.266667-21.333333 12.8-23.466667 25.6V358.4h-64v-266.666667c2.133333-38.4 32-68.266667 68.266667-72.533333h494.933333c38.4 4.266667 66.133333 34.133333 68.266667 72.533333V358.4h-64l2.133333-245.333333z m128 441.6l-4.266666 10.666666-34.133334 100.266667v4.266667l-12.8 32-17.066666 40.533333H194.133333l-14.933333-42.666667-44.8-132.266666-2.133333-12.8v-10.666667c0-110.933333 64-149.333333 123.733333-149.333333 27.733333 0 55.466667 8.533333 76.8 21.333333 25.6-21.333333 57.6-32 93.866667-32 34.133333 0 66.133333 12.8 91.733333 32 17.066667-10.666667 38.4-17.066667 59.733333-21.333333 6.4 0 12.8-2.133333 19.2-2.133334 32 0 61.866667 10.666667 85.333334 27.733334 23.466667-17.066667 53.333333-25.6 83.2-25.6h2.133333c42.666667 0 70.4 19.2 85.333333 34.133333 25.6 25.6 38.4 66.133333 38.4 115.2V554.666667z m-125.866666-96c-42.666667 0-78.933333 32-85.333334 72.533333-4.266667-42.666667-42.666667-74.666667-85.333333-74.666667h-10.666667c-38.4 4.266667-70.4 36.266667-74.666666 74.666667 0-46.933333-38.4-85.333333-85.333334-85.333333s-85.333333 38.4-85.333333 85.333333c-6.4-42.666667-42.666667-74.666667-85.333333-74.666667-46.933333 0-59.733333 38.4-59.733334 85.333334l44.8 130.133333h539.733334l12.8-32 36.266666-100.266667c0-44.8-12.8-81.066667-61.866666-81.066666z"  horiz-adv-x="1024" />

    
    <glyph glyph-name="shop-fill" unicode="&#59023;" d="M829.44 659.626667l2.346667-1.28zM238.08 704h548.693333a32 32 0 1 1 0 64H238.08a32 32 0 1 1 0-64zM704 366.72a95.786667 95.786667 0 0 0-95.573333-62.506667A95.786667 95.786667 0 0 0 512 366.72a96.853333 96.853333 0 0 0-96.426667-62.506667A95.786667 95.786667 0 0 0 320 366.72a96.853333 96.853333 0 0 0-96.426667-62.506667 93.866667 93.866667 0 0 0-29.653333 4.906667v-260.693333a52.266667 52.266667 0 0 1 42.666667-48.853334H789.333333a52.266667 52.266667 0 0 1 42.666667 48.853334V308.906667a95.786667 95.786667 0 0 0-29.653333-4.693334A96.853333 96.853333 0 0 0 704 366.72z m124.586667 291.626667H194.133333L128 466.986667A100.906667 100.906667 0 0 1 223.786667 362.666667 100.906667 100.906667 0 0 1 320 466.986667 100.906667 100.906667 0 0 1 415.786667 362.666667 100.906667 100.906667 0 0 1 512 466.986667 100.906667 100.906667 0 0 1 607.786667 362.666667 100.053333 100.053333 0 0 1 704 466.986667 101.12 101.12 0 0 1 799.786667 362.666667 100.906667 100.906667 0 0 1 896 466.986667z"  horiz-adv-x="1024" />

    
    <glyph glyph-name="shop-lit" unicode="&#59024;" d="M800 89.6c-2.133333-23.466667-19.2-42.666667-42.666667-46.933333h-490.666666c-23.466667 4.266667-40.533333 23.466667-42.666667 46.933333V358.4h-21.333333v-288c2.133333-25.6 21.333333-44.8 44.8-49.066667h524.8c25.6 4.266667 42.666667 23.466667 46.933333 49.066667V358.4h-19.2v-268.8zM896 512l-64 211.2-4.266667 14.933333H194.133333l-4.266666-14.933333L128 512v-4.266667c-2.133333-29.866667 8.533333-61.866667 29.866667-83.2 21.333333-23.466667 51.2-36.266667 83.2-36.266666 27.733333 0 55.466667 10.666667 74.666666 29.866666 8.533333 6.4 12.8 12.8 17.066667 19.2 17.066667-23.466667 44.8-40.533333 76.8-42.666666h12.8c36.266667 0 68.266667 17.066667 89.6 44.8 17.066667-23.466667 44.8-40.533333 76.8-44.8h12.8c36.266667 0 68.266667 17.066667 89.6 44.8 21.333333-27.733333 53.333333-44.8 89.6-44.8h21.333333v2.133333c51.2 10.666667 91.733333 55.466667 91.733334 110.933333v2.133334l2.133333 2.133333z m-113.066667-98.133333c-46.933333 0-85.333333 34.133333-91.733333 78.933333-6.4-44.8-44.8-78.933333-89.6-78.933333h-10.666667c-40.533333 4.266667-74.666667 38.4-78.933333 78.933333-6.4-46.933333-44.8-78.933333-89.6-78.933333h-10.666667c-40.533333 4.266667-74.666667 38.4-78.933333 78.933333-8.533333-21.333333-10.666667-46.933333-29.866667-59.733333-17.066667-17.066667-40.533333-23.466667-61.866666-23.466667-25.6 0-49.066667 10.666667-68.266667 29.866667-17.066667 19.2-25.6 42.666667-23.466667 68.266666l61.866667 211.2H810.666667l64-211.2c0-53.333333-40.533333-93.866667-91.733334-93.866666z"  horiz-adv-x="1024" />

    
    <glyph glyph-name="shop-reg" unicode="&#59025;" d="M795.733333 100.266667c-2.133333-19.2-14.933333-32-34.133333-36.266667H264.533333c-17.066667 4.266667-29.866667 19.2-34.133333 36.266667V358.4h-42.666667v-279.466667c2.133333-32 25.6-57.6 57.6-59.733333h533.333334c32 4.266667 55.466667 29.866667 57.6 59.733333V358.4h-42.666667l2.133333-258.133333zM891.733333 533.333333L832 708.266667l-10.666667 27.733333H200.533333L192 708.266667 132.266667 533.333333l-2.133334-4.266666v-6.4c-2.133333-34.133333 8.533333-66.133333 32-93.866667 23.466667-25.6 53.333333-40.533333 87.466667-42.666667h8.533333c34.133333 0 66.133333 12.8 89.6 36.266667 17.066667-14.933333 38.4-23.466667 61.866667-27.733333 6.4 0 12.8-2.133333 19.2-2.133334 32 0 61.866667 12.8 85.333333 34.133334 17.066667-14.933333 36.266667-23.466667 59.733334-27.733334 8.533333-2.133333 14.933333-2.133333 23.466666-2.133333 32 0 59.733333 10.666667 83.2 29.866667 23.466667-21.333333 53.333333-34.133333 85.333334-34.133334h2.133333c70.4 0 125.866667 55.466667 128 125.866667v8.533333l-4.266667 6.4z m-125.866666-98.133333c-42.666667 0-78.933333 32-85.333334 72.533333-8.533333-40.533333-42.666667-70.4-83.2-70.4-4.266667 0-10.666667 0-14.933333 2.133334-34.133333 6.4-61.866667 34.133333-68.266667 68.266666-6.4-42.666667-42.666667-72.533333-85.333333-72.533333h-12.8c-36.266667 6.4-66.133333 34.133333-72.533333 72.533333-2.133333-44.8-40.533333-78.933333-85.333334-78.933333h-6.4c-46.933333 2.133333-83.2 44.8-78.933333 91.733333l57.6 172.8H789.333333l59.733334-174.933333c2.133333-44.8-36.266667-83.2-83.2-83.2z"  horiz-adv-x="1024" />

    
    <glyph glyph-name="shrink-lit" unicode="&#59026;" d="M618.666667-42.666667h21.333333V256h298.666667v21.333333H618.666667zM85.333333 256h298.666667v-298.666667h21.333333V277.333333H85.333333z m298.666667 256H85.333333v-21.333333h320V810.666667h-21.333333z m554.666667 0H640V810.666667h-21.333333v-320h320z"  horiz-adv-x="1024" />

    
    </font>
</defs>
</svg>
